0
SECTION
2
HEADER
9
$ACADVER
1
AC1015
9
$INSUNITS
70
4
9
$LUNITS
70
4
9
$MEASUREMENT
70
1
0
ENDSEC
0
SECTION
2
TABLES
0
TABLE
2
LAYER
70
9
0
LAYER
2
0
70
0
62
7
6
Continuous
0
LAYER
2
WALL
70
0
62
2
6
Continuous
0
LAYER
2
ROOM
70
0
62
3
6
Continuous
0
LAYER
2
GRID
70
0
62
8
6
Continuous
0
LAYER
2
TEXT
70
0
62
7
6
Continuous
0
LAYER
2
DIM
70
0
62
4
6
Continuous
0
LAYER
2
DECK
70
0
62
3
6
Continuous
0
LAYER
2
STRUCT
70
0
62
6
6
Continuous
0
LAYER
2
DOME
70
0
62
5
6
Continuous
0
ENDTABLE
0
ENDSEC
0
SECTION
2
ENTITIES
0
LINE
8
GRID
10
0.0000
11
0.0000
20
0.0000
21
7280.0000
30
0.0000
31
0.0000
0
LINE
8
GRID
10
910.0000
11
910.0000
20
0.0000
21
7280.0000
30
0.0000
31
0.0000
0
LINE
8
GRID
10
1820.0000
11
1820.0000
20
0.0000
21
7280.0000
30
0.0000
31
0.0000
0
LINE
8
GRID
10
2730.0000
11
2730.0000
20
0.0000
21
7280.0000
30
0.0000
31
0.0000
0
LINE
8
GRID
10
3640.0000
11
3640.0000
20
0.0000
21
7280.0000
30
0.0000
31
0.0000
0
LINE
8
GRID
10
4550.0000
11
4550.0000
20
0.0000
21
7280.0000
30
0.0000
31
0.0000
0
LINE
8
GRID
10
5460.0000
11
5460.0000
20
0.0000
21
7280.0000
30
0.0000
31
0.0000
0
LINE
8
GRID
10
6370.0000
11
6370.0000
20
0.0000
21
7280.0000
30
0.0000
31
0.0000
0
LINE
8
GRID
10
7280.0000
11
7280.0000
20
0.0000
21
7280.0000
30
0.0000
31
0.0000
0
LINE
8
GRID
10
8190.0000
11
8190.0000
20
0.0000
21
7280.0000
30
0.0000
31
0.0000
0
LINE
8
GRID
10
9100.0000
11
9100.0000
20
0.0000
21
7280.0000
30
0.0000
31
0.0000
0
LINE
8
GRID
10
0.0000
11
9100.0000
20
0.0000
21
0.0000
30
0.0000
31
0.0000
0
LINE
8
GRID
10
0.0000
11
9100.0000
20
910.0000
21
910.0000
30
0.0000
31
0.0000
0
LINE
8
GRID
10
0.0000
11
9100.0000
20
1820.0000
21
1820.0000
30
0.0000
31
0.0000
0
LINE
8
GRID
10
0.0000
11
9100.0000
20
2730.0000
21
2730.0000
30
0.0000
31
0.0000
0
LINE
8
GRID
10
0.0000
11
9100.0000
20
3640.0000
21
3640.0000
30
0.0000
31
0.0000
0
LINE
8
GRID
10
0.0000
11
9100.0000
20
4550.0000
21
4550.0000
30
0.0000
31
0.0000
0
LINE
8
GRID
10
0.0000
11
9100.0000
20
5460.0000
21
5460.0000
30
0.0000
31
0.0000
0
LINE
8
GRID
10
0.0000
11
9100.0000
20
6370.0000
21
6370.0000
30
0.0000
31
0.0000
0
LINE
8
GRID
10
0.0000
11
9100.0000
20
7280.0000
21
7280.0000
30
0.0000
31
0.0000
0
LINE
8
STRUCT
10
-160.0000
11
9260.0000
20
-160.0000
21
-160.0000
30
0.0000
31
0.0000
0
LINE
8
STRUCT
10
9260.0000
11
9260.0000
20
-160.0000
21
7440.0000
30
0.0000
31
0.0000
0
LINE
8
STRUCT
10
9260.0000
11
-160.0000
20
7440.0000
21
7440.0000
30
0.0000
31
0.0000
0
LINE
8
STRUCT
10
-160.0000
11
-160.0000
20
7440.0000
21
-160.0000
30
0.0000
31
0.0000
0
LINE
8
WALL
10
0.0000
11
9100.0000
20
0.0000
21
0.0000
30
0.0000
31
0.0000
0
LINE
8
WALL
10
9100.0000
11
9100.0000
20
0.0000
21
7280.0000
30
0.0000
31
0.0000
0
LINE
8
WALL
10
9100.0000
11
0.0000
20
7280.0000
21
7280.0000
30
0.0000
31
0.0000
0
LINE
8
WALL
10
0.0000
11
0.0000
20
7280.0000
21
0.0000
30
0.0000
31
0.0000
0
LINE
8
ROOM
10
0.0000
11
9100.0000
20
2912.0000
21
2912.0000
30
0.0000
31
0.0000
0
LINE
8
ROOM
10
9100.0000
11
9100.0000
20
2912.0000
21
7280.0000
30
0.0000
31
0.0000
0
LINE
8
ROOM
10
9100.0000
11
0.0000
20
7280.0000
21
7280.0000
30
0.0000
31
0.0000
0
LINE
8
ROOM
10
0.0000
11
0.0000
20
7280.0000
21
2912.0000
30
0.0000
31
0.0000
0
TEXT
1
LDK+玄関
8
TEXT
10
4350.0000
11
4350.0000
20
5216.0000
21
5331.0000
30
0.0000
31
0.0000
40
230.0000
72
1.0000
0
TEXT
1
39.7m²
8
TEXT
10
4450.0000
11
4450.0000
20
5016.0000
21
5116.0000
30
0.0000
31
0.0000
40
200.0000
72
1.0000
0
LINE
8
ROOM
10
0.0000
11
3458.0000
20
1602.0000
21
1602.0000
30
0.0000
31
0.0000
0
LINE
8
ROOM
10
3458.0000
11
3458.0000
20
1602.0000
21
2912.0000
30
0.0000
31
0.0000
0
LINE
8
ROOM
10
3458.0000
11
0.0000
20
2912.0000
21
2912.0000
30
0.0000
31
0.0000
0
LINE
8
ROOM
10
0.0000
11
0.0000
20
2912.0000
21
1602.0000
30
0.0000
31
0.0000
0
TEXT
1
主寝室
8
TEXT
10
1529.0000
11
1529.0000
20
2377.0000
21
2492.0000
30
0.0000
31
0.0000
40
230.0000
72
1.0000
0
TEXT
1
4.5m²
8
TEXT
10
1629.0000
11
1629.0000
20
2177.0000
21
2277.0000
30
0.0000
31
0.0000
40
200.0000
72
1.0000
0
LINE
8
ROOM
10
3458.0000
11
6188.0000
20
1602.0000
21
1602.0000
30
0.0000
31
0.0000
0
LINE
8
ROOM
10
6188.0000
11
6188.0000
20
1602.0000
21
2912.0000
30
0.0000
31
0.0000
0
LINE
8
ROOM
10
6188.0000
11
3458.0000
20
2912.0000
21
2912.0000
30
0.0000
31
0.0000
0
LINE
8
ROOM
10
3458.0000
11
3458.0000
20
2912.0000
21
1602.0000
30
0.0000
31
0.0000
0
TEXT
1
子供室1
8
TEXT
10
4623.0000
11
4623.0000
20
2377.0000
21
2492.0000
30
0.0000
31
0.0000
40
230.0000
72
1.0000
0
TEXT
1
3.6m²
8
TEXT
10
4723.0000
11
4723.0000
20
2177.0000
21
2277.0000
30
0.0000
31
0.0000
40
200.0000
72
1.0000
0
LINE
8
ROOM
10
6188.0000
11
9100.0000
20
1602.0000
21
1602.0000
30
0.0000
31
0.0000
0
LINE
8
ROOM
10
9100.0000
11
9100.0000
20
1602.0000
21
2912.0000
30
0.0000
31
0.0000
0
LINE
8
ROOM
10
9100.0000
11
6188.0000
20
2912.0000
21
2912.0000
30
0.0000
31
0.0000
0
LINE
8
ROOM
10
6188.0000
11
6188.0000
20
2912.0000
21
1602.0000
30
0.0000
31
0.0000
0
TEXT
1
子供室2+書斎
8
TEXT
10
7444.0000
11
7444.0000
20
2377.0000
21
2492.0000
30
0.0000
31
0.0000
40
230.0000
72
1.0000
0
TEXT
1
3.8m²
8
TEXT
10
7544.0000
11
7544.0000
20
2177.0000
21
2277.0000
30
0.0000
31
0.0000
40
200.0000
72
1.0000
0
LINE
8
ROOM
10
0.0000
11
9100.0000
20
0.0000
21
0.0000
30
0.0000
31
0.0000
0
LINE
8
ROOM
10
9100.0000
11
9100.0000
20
0.0000
21
1602.0000
30
0.0000
31
0.0000
0
LINE
8
ROOM
10
9100.0000
11
0.0000
20
1602.0000
21
1602.0000
30
0.0000
31
0.0000
0
LINE
8
ROOM
10
0.0000
11
0.0000
20
1602.0000
21
0.0000
30
0.0000
31
0.0000
0
TEXT
1
水回り×2
8
TEXT
10
4350.0000
11
4350.0000
20
921.0000
21
1036.0000
30
0.0000
31
0.0000
40
230.0000
72
1.0000
0
TEXT
1
14.6m²
8
TEXT
10
4450.0000
11
4450.0000
20
721.0000
21
821.0000
30
0.0000
31
0.0000
40
200.0000
72
1.0000
0
LINE
8
DECK
10
9100.0000
11
11830.0000
20
0.0000
21
0.0000
30
0.0000
31
0.0000
0
LINE
8
DECK
10
11830.0000
11
11830.0000
20
0.0000
21
7280.0000
30
0.0000
31
0.0000
0
LINE
8
DECK
10
11830.0000
11
9100.0000
20
7280.0000
21
7280.0000
30
0.0000
31
0.0000
0
LINE
8
DECK
10
9100.0000
11
9100.0000
20
7280.0000
21
0.0000
30
0.0000
31
0.0000
0
TEXT
1
デッキ
8
TEXT
10
10265.0000
11
10265.0000
20
3640.0000
21
3755.0000
30
0.0000
31
0.0000
40
230.0000
72
1.0000
0
LINE
8
DIM
10
0.0000
11
0.0000
20
0.0000
21
-700.0000
30
0.0000
31
0.0000
0
LINE
8
DIM
10
9100.0000
11
9100.0000
20
0.0000
21
-700.0000
30
0.0000
31
0.0000
0
LINE
8
DIM
10
0.0000
11
9100.0000
20
-700.0000
21
-700.0000
30
0.0000
31
0.0000
0
TEXT
1
9100mm
8
DIM
10
4550.0000
11
4550.0000
20
-600.0000
21
-510.0000
30
0.0000
31
0.0000
40
180.0000
72
1.0000
0
LINE
8
DIM
10
0.0000
11
-700.0000
20
0.0000
21
0.0000
30
0.0000
31
0.0000
0
LINE
8
DIM
10
0.0000
11
-700.0000
20
7280.0000
21
7280.0000
30
0.0000
31
0.0000
0
LINE
8
DIM
10
-700.0000
11
-700.0000
20
0.0000
21
7280.0000
30
0.0000
31
0.0000
0
TEXT
1
7280mm
8
DIM
10
-600.0000
11
-600.0000
20
3640.0000
21
3730.0000
30
0.0000
31
0.0000
40
180.0000
72
1.0000
0
LINE
8
STRUCT
10
0.0000
11
12030.0000
20
8380.0000
21
8380.0000
30
0.0000
31
0.0000
0
TEXT
1
SOLUNA BUILD — MUNE
8
TEXT
10
0.0000
11
0.0000
20
9080.0000
21
9305.0000
30
0.0000
31
0.0000
40
450.0000
72
1.0000
0
TEXT
1
W 9,100 × D 7,280 mm
8
TEXT
10
0.0000
11
0.0000
20
8760.0000
21
8910.0000
30
0.0000
31
0.0000
40
300.0000
72
1.0000
0
TEXT
1
床面積:66m²　工期:16週　材料費:¥812万
8
TEXT
10
0.0000
11
0.0000
20
8530.0000
21
8650.0000
30
0.0000
31
0.0000
40
240.0000
72
1.0000
0
TEXT
1
910mmモジュール / SIPs断熱 / 単位:mm / 縮尺1:50
8
TEXT
10
0.0000
11
0.0000
20
8330.0000
21
8440.0000
30
0.0000
31
0.0000
40
220.0000
72
1.0000
0
TEXT
1
↑
8
TEXT
10
12230.0000
11
12230.0000
20
3840.0000
21
4090.0000
30
0.0000
31
0.0000
40
500.0000
72
1.0000
0
TEXT
1
N
8
TEXT
10
12230.0000
11
12230.0000
20
3540.0000
21
3690.0000
30
0.0000
31
0.0000
40
300.0000
72
1.0000
0
ENDSEC
0
EOF
