0
SECTION
2
HEADER
9
$ACADVER
1
AC1015
9
$INSUNITS
70
4
9
$LUNITS
70
4
9
$MEASUREMENT
70
1
0
ENDSEC
0
SECTION
2
TABLES
0
TABLE
2
LAYER
70
9
0
LAYER
2
0
70
0
62
7
6
Continuous
0
LAYER
2
WALL
70
0
62
2
6
Continuous
0
LAYER
2
ROOM
70
0
62
3
6
Continuous
0
LAYER
2
GRID
70
0
62
8
6
Continuous
0
LAYER
2
TEXT
70
0
62
7
6
Continuous
0
LAYER
2
DIM
70
0
62
4
6
Continuous
0
LAYER
2
DECK
70
0
62
3
6
Continuous
0
LAYER
2
STRUCT
70
0
62
6
6
Continuous
0
LAYER
2
DOME
70
0
62
5
6
Continuous
0
ENDTABLE
0
ENDSEC
0
SECTION
2
ENTITIES
0
LINE
8
GRID
10
0.0000
11
0.0000
20
0.0000
21
5196.0000
30
0.0000
31
0.0000
0
LINE
8
GRID
10
910.0000
11
910.0000
20
0.0000
21
5196.0000
30
0.0000
31
0.0000
0
LINE
8
GRID
10
1820.0000
11
1820.0000
20
0.0000
21
5196.0000
30
0.0000
31
0.0000
0
LINE
8
GRID
10
2730.0000
11
2730.0000
20
0.0000
21
5196.0000
30
0.0000
31
0.0000
0
LINE
8
GRID
10
3640.0000
11
3640.0000
20
0.0000
21
5196.0000
30
0.0000
31
0.0000
0
LINE
8
GRID
10
4550.0000
11
4550.0000
20
0.0000
21
5196.0000
30
0.0000
31
0.0000
0
LINE
8
GRID
10
0.0000
11
5196.0000
20
0.0000
21
0.0000
30
0.0000
31
0.0000
0
LINE
8
GRID
10
0.0000
11
5196.0000
20
910.0000
21
910.0000
30
0.0000
31
0.0000
0
LINE
8
GRID
10
0.0000
11
5196.0000
20
1820.0000
21
1820.0000
30
0.0000
31
0.0000
0
LINE
8
GRID
10
0.0000
11
5196.0000
20
2730.0000
21
2730.0000
30
0.0000
31
0.0000
0
LINE
8
GRID
10
0.0000
11
5196.0000
20
3640.0000
21
3640.0000
30
0.0000
31
0.0000
0
LINE
8
GRID
10
0.0000
11
5196.0000
20
4550.0000
21
4550.0000
30
0.0000
31
0.0000
0
LINE
8
STRUCT
10
-160.0000
11
5356.0000
20
-160.0000
21
-160.0000
30
0.0000
31
0.0000
0
LINE
8
STRUCT
10
5356.0000
11
5356.0000
20
-160.0000
21
5356.0000
30
0.0000
31
0.0000
0
LINE
8
STRUCT
10
5356.0000
11
-160.0000
20
5356.0000
21
5356.0000
30
0.0000
31
0.0000
0
LINE
8
STRUCT
10
-160.0000
11
-160.0000
20
5356.0000
21
-160.0000
30
0.0000
31
0.0000
0
LINE
8
WALL
10
0.0000
11
5196.0000
20
0.0000
21
0.0000
30
0.0000
31
0.0000
0
LINE
8
WALL
10
5196.0000
11
5196.0000
20
0.0000
21
5196.0000
30
0.0000
31
0.0000
0
LINE
8
WALL
10
5196.0000
11
0.0000
20
5196.0000
21
5196.0000
30
0.0000
31
0.0000
0
LINE
8
WALL
10
0.0000
11
0.0000
20
5196.0000
21
0.0000
30
0.0000
31
0.0000
0
CIRCLE
8
DOME
10
2598.0000
20
2598.0000
30
0.0000
40
2931.6151
0
TEXT
1
円形居室 27m²
8
TEXT
10
1998.0000
11
1998.0000
20
2798.0000
21
2973.0000
30
0.0000
31
0.0000
40
350.0000
72
1.0000
0
CIRCLE
8
DOME
10
2598.0000
20
2598.0000
30
0.0000
40
2771.6151
0
LINE
8
DECK
10
5196.0000
11
6755.0000
20
0.0000
21
0.0000
30
0.0000
31
0.0000
0
LINE
8
DECK
10
6755.0000
11
6755.0000
20
0.0000
21
5196.0000
30
0.0000
31
0.0000
0
LINE
8
DECK
10
6755.0000
11
5196.0000
20
5196.0000
21
5196.0000
30
0.0000
31
0.0000
0
LINE
8
DECK
10
5196.0000
11
5196.0000
20
5196.0000
21
0.0000
30
0.0000
31
0.0000
0
TEXT
1
デッキ
8
TEXT
10
5775.5000
11
5775.5000
20
2598.0000
21
2713.0000
30
0.0000
31
0.0000
40
230.0000
72
1.0000
0
LINE
8
DIM
10
0.0000
11
0.0000
20
0.0000
21
-700.0000
30
0.0000
31
0.0000
0
LINE
8
DIM
10
5196.0000
11
5196.0000
20
0.0000
21
-700.0000
30
0.0000
31
0.0000
0
LINE
8
DIM
10
0.0000
11
5196.0000
20
-700.0000
21
-700.0000
30
0.0000
31
0.0000
0
TEXT
1
5196mm
8
DIM
10
2598.0000
11
2598.0000
20
-600.0000
21
-510.0000
30
0.0000
31
0.0000
40
180.0000
72
1.0000
0
LINE
8
DIM
10
0.0000
11
-700.0000
20
0.0000
21
0.0000
30
0.0000
31
0.0000
0
LINE
8
DIM
10
0.0000
11
-700.0000
20
5196.0000
21
5196.0000
30
0.0000
31
0.0000
0
LINE
8
DIM
10
-700.0000
11
-700.0000
20
0.0000
21
5196.0000
30
0.0000
31
0.0000
0
TEXT
1
5196mm
8
DIM
10
-600.0000
11
-600.0000
20
2598.0000
21
2688.0000
30
0.0000
31
0.0000
40
180.0000
72
1.0000
0
LINE
8
STRUCT
10
0.0000
11
6955.0000
20
6296.0000
21
6296.0000
30
0.0000
31
0.0000
0
TEXT
1
SOLUNA BUILD — TAMA
8
TEXT
10
0.0000
11
0.0000
20
6996.0000
21
7221.0000
30
0.0000
31
0.0000
40
450.0000
72
1.0000
0
TEXT
1
直径 5,900mm × 高さ 2,500mm（2V ジオデシック）
8
TEXT
10
0.0000
11
0.0000
20
6676.0000
21
6826.0000
30
0.0000
31
0.0000
40
300.0000
72
1.0000
0
TEXT
1
床面積:27m²　工期:8週　材料費:¥147万
8
TEXT
10
0.0000
11
0.0000
20
6446.0000
21
6566.0000
30
0.0000
31
0.0000
40
240.0000
72
1.0000
0
TEXT
1
910mmモジュール / SIPs断熱 / 単位:mm / 縮尺1:50
8
TEXT
10
0.0000
11
0.0000
20
6246.0000
21
6356.0000
30
0.0000
31
0.0000
40
220.0000
72
1.0000
0
TEXT
1
↑
8
TEXT
10
7155.0000
11
7155.0000
20
2798.0000
21
3048.0000
30
0.0000
31
0.0000
40
500.0000
72
1.0000
0
TEXT
1
N
8
TEXT
10
7155.0000
11
7155.0000
20
2498.0000
21
2648.0000
30
0.0000
31
0.0000
40
300.0000
72
1.0000
0
ENDSEC
0
EOF
