0
SECTION
2
HEADER
9
$ACADVER
1
AC1015
9
$INSUNITS
70
4
9
$LUNITS
70
4
9
$MEASUREMENT
70
1
0
ENDSEC
0
SECTION
2
TABLES
0
TABLE
2
LAYER
70
9
0
LAYER
2
0
70
0
62
7
6
Continuous
0
LAYER
2
WALL
70
0
62
2
6
Continuous
0
LAYER
2
ROOM
70
0
62
3
6
Continuous
0
LAYER
2
GRID
70
0
62
8
6
Continuous
0
LAYER
2
TEXT
70
0
62
7
6
Continuous
0
LAYER
2
DIM
70
0
62
4
6
Continuous
0
LAYER
2
DECK
70
0
62
3
6
Continuous
0
LAYER
2
STRUCT
70
0
62
6
6
Continuous
0
LAYER
2
DOME
70
0
62
5
6
Continuous
0
ENDTABLE
0
ENDSEC
0
SECTION
2
ENTITIES
0
LINE
8
GRID
10
0.0000
11
0.0000
20
0.0000
21
4550.0000
30
0.0000
31
0.0000
0
LINE
8
GRID
10
910.0000
11
910.0000
20
0.0000
21
4550.0000
30
0.0000
31
0.0000
0
LINE
8
GRID
10
1820.0000
11
1820.0000
20
0.0000
21
4550.0000
30
0.0000
31
0.0000
0
LINE
8
GRID
10
2730.0000
11
2730.0000
20
0.0000
21
4550.0000
30
0.0000
31
0.0000
0
LINE
8
GRID
10
3640.0000
11
3640.0000
20
0.0000
21
4550.0000
30
0.0000
31
0.0000
0
LINE
8
GRID
10
4550.0000
11
4550.0000
20
0.0000
21
4550.0000
30
0.0000
31
0.0000
0
LINE
8
GRID
10
5460.0000
11
5460.0000
20
0.0000
21
4550.0000
30
0.0000
31
0.0000
0
LINE
8
GRID
10
0.0000
11
5460.0000
20
0.0000
21
0.0000
30
0.0000
31
0.0000
0
LINE
8
GRID
10
0.0000
11
5460.0000
20
910.0000
21
910.0000
30
0.0000
31
0.0000
0
LINE
8
GRID
10
0.0000
11
5460.0000
20
1820.0000
21
1820.0000
30
0.0000
31
0.0000
0
LINE
8
GRID
10
0.0000
11
5460.0000
20
2730.0000
21
2730.0000
30
0.0000
31
0.0000
0
LINE
8
GRID
10
0.0000
11
5460.0000
20
3640.0000
21
3640.0000
30
0.0000
31
0.0000
0
LINE
8
GRID
10
0.0000
11
5460.0000
20
4550.0000
21
4550.0000
30
0.0000
31
0.0000
0
LINE
8
STRUCT
10
-160.0000
11
5620.0000
20
-160.0000
21
-160.0000
30
0.0000
31
0.0000
0
LINE
8
STRUCT
10
5620.0000
11
5620.0000
20
-160.0000
21
4710.0000
30
0.0000
31
0.0000
0
LINE
8
STRUCT
10
5620.0000
11
-160.0000
20
4710.0000
21
4710.0000
30
0.0000
31
0.0000
0
LINE
8
STRUCT
10
-160.0000
11
-160.0000
20
4710.0000
21
-160.0000
30
0.0000
31
0.0000
0
LINE
8
WALL
10
0.0000
11
5460.0000
20
0.0000
21
0.0000
30
0.0000
31
0.0000
0
LINE
8
WALL
10
5460.0000
11
5460.0000
20
0.0000
21
4550.0000
30
0.0000
31
0.0000
0
LINE
8
WALL
10
5460.0000
11
0.0000
20
4550.0000
21
4550.0000
30
0.0000
31
0.0000
0
LINE
8
WALL
10
0.0000
11
0.0000
20
4550.0000
21
0.0000
30
0.0000
31
0.0000
0
LINE
8
ROOM
10
0.0000
11
5460.0000
20
1729.0000
21
1729.0000
30
0.0000
31
0.0000
0
LINE
8
ROOM
10
5460.0000
11
5460.0000
20
1729.0000
21
4550.0000
30
0.0000
31
0.0000
0
LINE
8
ROOM
10
5460.0000
11
0.0000
20
4550.0000
21
4550.0000
30
0.0000
31
0.0000
0
LINE
8
ROOM
10
0.0000
11
0.0000
20
4550.0000
21
1729.0000
30
0.0000
31
0.0000
0
TEXT
1
LDK
8
TEXT
10
2530.0000
11
2530.0000
20
3259.5000
21
3374.5000
30
0.0000
31
0.0000
40
230.0000
72
1.0000
0
TEXT
1
15.4m²
8
TEXT
10
2630.0000
11
2630.0000
20
3059.5000
21
3159.5000
30
0.0000
31
0.0000
40
200.0000
72
1.0000
0
LINE
8
ROOM
10
0.0000
11
3058.0000
20
0.0000
21
0.0000
30
0.0000
31
0.0000
0
LINE
8
ROOM
10
3058.0000
11
3058.0000
20
0.0000
21
1729.0000
30
0.0000
31
0.0000
0
LINE
8
ROOM
10
3058.0000
11
0.0000
20
1729.0000
21
1729.0000
30
0.0000
31
0.0000
0
LINE
8
ROOM
10
0.0000
11
0.0000
20
1729.0000
21
0.0000
30
0.0000
31
0.0000
0
TEXT
1
寝室
8
TEXT
10
1329.0000
11
1329.0000
20
984.5000
21
1099.5000
30
0.0000
31
0.0000
40
230.0000
72
1.0000
0
TEXT
1
5.3m²
8
TEXT
10
1429.0000
11
1429.0000
20
784.5000
21
884.5000
30
0.0000
31
0.0000
40
200.0000
72
1.0000
0
LINE
8
ROOM
10
3058.0000
11
5460.0000
20
0.0000
21
0.0000
30
0.0000
31
0.0000
0
LINE
8
ROOM
10
5460.0000
11
5460.0000
20
0.0000
21
1729.0000
30
0.0000
31
0.0000
0
LINE
8
ROOM
10
5460.0000
11
3058.0000
20
1729.0000
21
1729.0000
30
0.0000
31
0.0000
0
LINE
8
ROOM
10
3058.0000
11
3058.0000
20
1729.0000
21
0.0000
30
0.0000
31
0.0000
0
TEXT
1
水回り+玄関
8
TEXT
10
4059.0000
11
4059.0000
20
984.5000
21
1099.5000
30
0.0000
31
0.0000
40
230.0000
72
1.0000
0
TEXT
1
4.2m²
8
TEXT
10
4159.0000
11
4159.0000
20
784.5000
21
884.5000
30
0.0000
31
0.0000
40
200.0000
72
1.0000
0
LINE
8
DECK
10
5460.0000
11
7098.0000
20
0.0000
21
0.0000
30
0.0000
31
0.0000
0
LINE
8
DECK
10
7098.0000
11
7098.0000
20
0.0000
21
4550.0000
30
0.0000
31
0.0000
0
LINE
8
DECK
10
7098.0000
11
5460.0000
20
4550.0000
21
4550.0000
30
0.0000
31
0.0000
0
LINE
8
DECK
10
5460.0000
11
5460.0000
20
4550.0000
21
0.0000
30
0.0000
31
0.0000
0
TEXT
1
デッキ
8
TEXT
10
6079.0000
11
6079.0000
20
2275.0000
21
2390.0000
30
0.0000
31
0.0000
40
230.0000
72
1.0000
0
LINE
8
DIM
10
0.0000
11
0.0000
20
0.0000
21
-700.0000
30
0.0000
31
0.0000
0
LINE
8
DIM
10
5460.0000
11
5460.0000
20
0.0000
21
-700.0000
30
0.0000
31
0.0000
0
LINE
8
DIM
10
0.0000
11
5460.0000
20
-700.0000
21
-700.0000
30
0.0000
31
0.0000
0
TEXT
1
5460mm
8
DIM
10
2730.0000
11
2730.0000
20
-600.0000
21
-510.0000
30
0.0000
31
0.0000
40
180.0000
72
1.0000
0
LINE
8
DIM
10
0.0000
11
-700.0000
20
0.0000
21
0.0000
30
0.0000
31
0.0000
0
LINE
8
DIM
10
0.0000
11
-700.0000
20
4550.0000
21
4550.0000
30
0.0000
31
0.0000
0
LINE
8
DIM
10
-700.0000
11
-700.0000
20
0.0000
21
4550.0000
30
0.0000
31
0.0000
0
TEXT
1
4550mm
8
DIM
10
-600.0000
11
-600.0000
20
2275.0000
21
2365.0000
30
0.0000
31
0.0000
40
180.0000
72
1.0000
0
LINE
8
STRUCT
10
0.0000
11
7298.0000
20
5650.0000
21
5650.0000
30
0.0000
31
0.0000
0
TEXT
1
SOLUNA BUILD — SU
8
TEXT
10
0.0000
11
0.0000
20
6350.0000
21
6575.0000
30
0.0000
31
0.0000
40
450.0000
72
1.0000
0
TEXT
1
W 5,460 × D 4,550 mm
8
TEXT
10
0.0000
11
0.0000
20
6030.0000
21
6180.0000
30
0.0000
31
0.0000
40
300.0000
72
1.0000
0
TEXT
1
床面積:24.8m²　工期:8週　材料費:¥325万
8
TEXT
10
0.0000
11
0.0000
20
5800.0000
21
5920.0000
30
0.0000
31
0.0000
40
240.0000
72
1.0000
0
TEXT
1
910mmモジュール / SIPs断熱 / 単位:mm / 縮尺1:50
8
TEXT
10
0.0000
11
0.0000
20
5600.0000
21
5710.0000
30
0.0000
31
0.0000
40
220.0000
72
1.0000
0
TEXT
1
↑
8
TEXT
10
7498.0000
11
7498.0000
20
2475.0000
21
2725.0000
30
0.0000
31
0.0000
40
500.0000
72
1.0000
0
TEXT
1
N
8
TEXT
10
7498.0000
11
7498.0000
20
2175.0000
21
2325.0000
30
0.0000
31
0.0000
40
300.0000
72
1.0000
0
ENDSEC
0
EOF
