0
SECTION
2
HEADER
9
$ACADVER
1
AC1015
9
$INSUNITS
70
4
9
$LUNITS
70
4
9
$MEASUREMENT
70
1
0
ENDSEC
0
SECTION
2
TABLES
0
TABLE
2
LAYER
70
9
0
LAYER
2
0
70
0
62
7
6
Continuous
0
LAYER
2
WALL
70
0
62
2
6
Continuous
0
LAYER
2
ROOM
70
0
62
3
6
Continuous
0
LAYER
2
GRID
70
0
62
8
6
Continuous
0
LAYER
2
TEXT
70
0
62
7
6
Continuous
0
LAYER
2
DIM
70
0
62
4
6
Continuous
0
LAYER
2
DECK
70
0
62
3
6
Continuous
0
LAYER
2
STRUCT
70
0
62
6
6
Continuous
0
LAYER
2
DOME
70
0
62
5
6
Continuous
0
ENDTABLE
0
ENDSEC
0
SECTION
2
ENTITIES
0
LINE
8
GRID
10
0.0000
11
0.0000
20
0.0000
21
13200.0000
30
0.0000
31
0.0000
0
LINE
8
GRID
10
910.0000
11
910.0000
20
0.0000
21
13200.0000
30
0.0000
31
0.0000
0
LINE
8
GRID
10
1820.0000
11
1820.0000
20
0.0000
21
13200.0000
30
0.0000
31
0.0000
0
LINE
8
GRID
10
2730.0000
11
2730.0000
20
0.0000
21
13200.0000
30
0.0000
31
0.0000
0
LINE
8
GRID
10
3640.0000
11
3640.0000
20
0.0000
21
13200.0000
30
0.0000
31
0.0000
0
LINE
8
GRID
10
4550.0000
11
4550.0000
20
0.0000
21
13200.0000
30
0.0000
31
0.0000
0
LINE
8
GRID
10
5460.0000
11
5460.0000
20
0.0000
21
13200.0000
30
0.0000
31
0.0000
0
LINE
8
GRID
10
6370.0000
11
6370.0000
20
0.0000
21
13200.0000
30
0.0000
31
0.0000
0
LINE
8
GRID
10
7280.0000
11
7280.0000
20
0.0000
21
13200.0000
30
0.0000
31
0.0000
0
LINE
8
GRID
10
8190.0000
11
8190.0000
20
0.0000
21
13200.0000
30
0.0000
31
0.0000
0
LINE
8
GRID
10
9100.0000
11
9100.0000
20
0.0000
21
13200.0000
30
0.0000
31
0.0000
0
LINE
8
GRID
10
0.0000
11
9100.0000
20
0.0000
21
0.0000
30
0.0000
31
0.0000
0
LINE
8
GRID
10
0.0000
11
9100.0000
20
910.0000
21
910.0000
30
0.0000
31
0.0000
0
LINE
8
GRID
10
0.0000
11
9100.0000
20
1820.0000
21
1820.0000
30
0.0000
31
0.0000
0
LINE
8
GRID
10
0.0000
11
9100.0000
20
2730.0000
21
2730.0000
30
0.0000
31
0.0000
0
LINE
8
GRID
10
0.0000
11
9100.0000
20
3640.0000
21
3640.0000
30
0.0000
31
0.0000
0
LINE
8
GRID
10
0.0000
11
9100.0000
20
4550.0000
21
4550.0000
30
0.0000
31
0.0000
0
LINE
8
GRID
10
0.0000
11
9100.0000
20
5460.0000
21
5460.0000
30
0.0000
31
0.0000
0
LINE
8
GRID
10
0.0000
11
9100.0000
20
6370.0000
21
6370.0000
30
0.0000
31
0.0000
0
LINE
8
GRID
10
0.0000
11
9100.0000
20
7280.0000
21
7280.0000
30
0.0000
31
0.0000
0
LINE
8
GRID
10
0.0000
11
9100.0000
20
8190.0000
21
8190.0000
30
0.0000
31
0.0000
0
LINE
8
GRID
10
0.0000
11
9100.0000
20
9100.0000
21
9100.0000
30
0.0000
31
0.0000
0
LINE
8
GRID
10
0.0000
11
9100.0000
20
10010.0000
21
10010.0000
30
0.0000
31
0.0000
0
LINE
8
GRID
10
0.0000
11
9100.0000
20
10920.0000
21
10920.0000
30
0.0000
31
0.0000
0
LINE
8
GRID
10
0.0000
11
9100.0000
20
11830.0000
21
11830.0000
30
0.0000
31
0.0000
0
LINE
8
GRID
10
0.0000
11
9100.0000
20
12740.0000
21
12740.0000
30
0.0000
31
0.0000
0
LINE
8
STRUCT
10
-160.0000
11
9260.0000
20
-160.0000
21
-160.0000
30
0.0000
31
0.0000
0
LINE
8
STRUCT
10
9260.0000
11
9260.0000
20
-160.0000
21
13360.0000
30
0.0000
31
0.0000
0
LINE
8
STRUCT
10
9260.0000
11
-160.0000
20
13360.0000
21
13360.0000
30
0.0000
31
0.0000
0
LINE
8
STRUCT
10
-160.0000
11
-160.0000
20
13360.0000
21
-160.0000
30
0.0000
31
0.0000
0
LINE
8
WALL
10
0.0000
11
9100.0000
20
0.0000
21
0.0000
30
0.0000
31
0.0000
0
LINE
8
WALL
10
9100.0000
11
9100.0000
20
0.0000
21
13200.0000
30
0.0000
31
0.0000
0
LINE
8
WALL
10
9100.0000
11
0.0000
20
13200.0000
21
13200.0000
30
0.0000
31
0.0000
0
LINE
8
WALL
10
0.0000
11
0.0000
20
13200.0000
21
0.0000
30
0.0000
31
0.0000
0
LINE
8
ROOM
10
0.0000
11
9100.0000
20
6600.0000
21
6600.0000
30
0.0000
31
0.0000
0
LINE
8
ROOM
10
9100.0000
11
9100.0000
20
6600.0000
21
13200.0000
30
0.0000
31
0.0000
0
LINE
8
ROOM
10
9100.0000
11
0.0000
20
13200.0000
21
13200.0000
30
0.0000
31
0.0000
0
LINE
8
ROOM
10
0.0000
11
0.0000
20
13200.0000
21
6600.0000
30
0.0000
31
0.0000
0
TEXT
1
食堂・ホール 60m²
8
TEXT
10
4350.0000
11
4350.0000
20
10020.0000
21
10135.0000
30
0.0000
31
0.0000
40
230.0000
72
1.0000
0
TEXT
1
60.1m²
8
TEXT
10
4450.0000
11
4450.0000
20
9820.0000
21
9920.0000
30
0.0000
31
0.0000
40
200.0000
72
1.0000
0
LINE
8
ROOM
10
0.0000
11
4550.0000
20
0.0000
21
0.0000
30
0.0000
31
0.0000
0
LINE
8
ROOM
10
4550.0000
11
4550.0000
20
0.0000
21
6600.0000
30
0.0000
31
0.0000
0
LINE
8
ROOM
10
4550.0000
11
0.0000
20
6600.0000
21
6600.0000
30
0.0000
31
0.0000
0
LINE
8
ROOM
10
0.0000
11
0.0000
20
6600.0000
21
0.0000
30
0.0000
31
0.0000
0
TEXT
1
水回り・更衣室 30m²
8
TEXT
10
2075.0000
11
2075.0000
20
3420.0000
21
3535.0000
30
0.0000
31
0.0000
40
230.0000
72
1.0000
0
TEXT
1
30.0m²
8
TEXT
10
2175.0000
11
2175.0000
20
3220.0000
21
3320.0000
30
0.0000
31
0.0000
40
200.0000
72
1.0000
0
LINE
8
ROOM
10
4550.0000
11
9100.0000
20
2204.0000
21
2204.0000
30
0.0000
31
0.0000
0
LINE
8
ROOM
10
9100.0000
11
9100.0000
20
2204.0000
21
6600.0000
30
0.0000
31
0.0000
0
LINE
8
ROOM
10
9100.0000
11
4550.0000
20
6600.0000
21
6600.0000
30
0.0000
31
0.0000
0
LINE
8
ROOM
10
4550.0000
11
4550.0000
20
6600.0000
21
2204.0000
30
0.0000
31
0.0000
0
TEXT
1
厨房 20m²
8
TEXT
10
6625.0000
11
6625.0000
20
4522.0000
21
4637.0000
30
0.0000
31
0.0000
40
230.0000
72
1.0000
0
TEXT
1
20.0m²
8
TEXT
10
6725.0000
11
6725.0000
20
4322.0000
21
4422.0000
30
0.0000
31
0.0000
40
200.0000
72
1.0000
0
LINE
8
ROOM
10
4550.0000
11
9100.0000
20
0.0000
21
0.0000
30
0.0000
31
0.0000
0
LINE
8
ROOM
10
9100.0000
11
9100.0000
20
0.0000
21
2204.0000
30
0.0000
31
0.0000
0
LINE
8
ROOM
10
9100.0000
11
4550.0000
20
2204.0000
21
2204.0000
30
0.0000
31
0.0000
0
LINE
8
ROOM
10
4550.0000
11
4550.0000
20
2204.0000
21
0.0000
30
0.0000
31
0.0000
0
TEXT
1
スタッフ室 10m²
8
TEXT
10
6625.0000
11
6625.0000
20
1222.0000
21
1337.0000
30
0.0000
31
0.0000
40
230.0000
72
1.0000
0
TEXT
1
10.0m²
8
TEXT
10
6725.0000
11
6725.0000
20
1022.0000
21
1122.0000
30
0.0000
31
0.0000
40
200.0000
72
1.0000
0
LINE
8
DECK
10
9100.0000
11
11830.0000
20
0.0000
21
0.0000
30
0.0000
31
0.0000
0
LINE
8
DECK
10
11830.0000
11
11830.0000
20
0.0000
21
13200.0000
30
0.0000
31
0.0000
0
LINE
8
DECK
10
11830.0000
11
9100.0000
20
13200.0000
21
13200.0000
30
0.0000
31
0.0000
0
LINE
8
DECK
10
9100.0000
11
9100.0000
20
13200.0000
21
0.0000
30
0.0000
31
0.0000
0
TEXT
1
デッキ
8
TEXT
10
10265.0000
11
10265.0000
20
6600.0000
21
6715.0000
30
0.0000
31
0.0000
40
230.0000
72
1.0000
0
LINE
8
DIM
10
0.0000
11
0.0000
20
0.0000
21
-700.0000
30
0.0000
31
0.0000
0
LINE
8
DIM
10
9100.0000
11
9100.0000
20
0.0000
21
-700.0000
30
0.0000
31
0.0000
0
LINE
8
DIM
10
0.0000
11
9100.0000
20
-700.0000
21
-700.0000
30
0.0000
31
0.0000
0
TEXT
1
9100mm
8
DIM
10
4550.0000
11
4550.0000
20
-600.0000
21
-510.0000
30
0.0000
31
0.0000
40
180.0000
72
1.0000
0
LINE
8
DIM
10
0.0000
11
-700.0000
20
0.0000
21
0.0000
30
0.0000
31
0.0000
0
LINE
8
DIM
10
0.0000
11
-700.0000
20
13200.0000
21
13200.0000
30
0.0000
31
0.0000
0
LINE
8
DIM
10
-700.0000
11
-700.0000
20
0.0000
21
13200.0000
30
0.0000
31
0.0000
0
TEXT
1
13200mm
8
DIM
10
-600.0000
11
-600.0000
20
6600.0000
21
6690.0000
30
0.0000
31
0.0000
40
180.0000
72
1.0000
0
LINE
8
STRUCT
10
0.0000
11
12030.0000
20
14300.0000
21
14300.0000
30
0.0000
31
0.0000
0
TEXT
1
SOLUNA BUILD — VILLA
8
TEXT
10
0.0000
11
0.0000
20
15000.0000
21
15225.0000
30
0.0000
31
0.0000
40
450.0000
72
1.0000
0
TEXT
1
W 9,100 × D 13,200 mm（平屋）
8
TEXT
10
0.0000
11
0.0000
20
14680.0000
21
14830.0000
30
0.0000
31
0.0000
40
300.0000
72
1.0000
0
TEXT
1
床面積:120m²　工期:24週　材料費:¥1400万
8
TEXT
10
0.0000
11
0.0000
20
14450.0000
21
14570.0000
30
0.0000
31
0.0000
40
240.0000
72
1.0000
0
TEXT
1
910mmモジュール / SIPs断熱 / 単位:mm / 縮尺1:50
8
TEXT
10
0.0000
11
0.0000
20
14250.0000
21
14360.0000
30
0.0000
31
0.0000
40
220.0000
72
1.0000
0
TEXT
1
↑
8
TEXT
10
12230.0000
11
12230.0000
20
6800.0000
21
7050.0000
30
0.0000
31
0.0000
40
500.0000
72
1.0000
0
TEXT
1
N
8
TEXT
10
12230.0000
11
12230.0000
20
6500.0000
21
6650.0000
30
0.0000
31
0.0000
40
300.0000
72
1.0000
0
ENDSEC
0
EOF
