0
SECTION
2
HEADER
9
$ACADVER
1
AC1015
9
$INSUNITS
70
4
9
$LUNITS
70
4
9
$MEASUREMENT
70
1
0
ENDSEC
0
SECTION
2
TABLES
0
TABLE
2
LAYER
70
9
0
LAYER
2
0
70
0
62
7
6
Continuous
0
LAYER
2
WALL
70
0
62
2
6
Continuous
0
LAYER
2
ROOM
70
0
62
3
6
Continuous
0
LAYER
2
GRID
70
0
62
8
6
Continuous
0
LAYER
2
TEXT
70
0
62
7
6
Continuous
0
LAYER
2
DIM
70
0
62
4
6
Continuous
0
LAYER
2
DECK
70
0
62
3
6
Continuous
0
LAYER
2
STRUCT
70
0
62
6
6
Continuous
0
LAYER
2
DOME
70
0
62
5
6
Continuous
0
ENDTABLE
0
ENDSEC
0
SECTION
2
ENTITIES
0
LINE
8
GRID
10
0.0000
11
0.0000
20
0.0000
21
2730.0000
30
0.0000
31
0.0000
0
LINE
8
GRID
10
910.0000
11
910.0000
20
0.0000
21
2730.0000
30
0.0000
31
0.0000
0
LINE
8
GRID
10
1820.0000
11
1820.0000
20
0.0000
21
2730.0000
30
0.0000
31
0.0000
0
LINE
8
GRID
10
2730.0000
11
2730.0000
20
0.0000
21
2730.0000
30
0.0000
31
0.0000
0
LINE
8
GRID
10
3640.0000
11
3640.0000
20
0.0000
21
2730.0000
30
0.0000
31
0.0000
0
LINE
8
GRID
10
0.0000
11
3640.0000
20
0.0000
21
0.0000
30
0.0000
31
0.0000
0
LINE
8
GRID
10
0.0000
11
3640.0000
20
910.0000
21
910.0000
30
0.0000
31
0.0000
0
LINE
8
GRID
10
0.0000
11
3640.0000
20
1820.0000
21
1820.0000
30
0.0000
31
0.0000
0
LINE
8
GRID
10
0.0000
11
3640.0000
20
2730.0000
21
2730.0000
30
0.0000
31
0.0000
0
LINE
8
STRUCT
10
-160.0000
11
3800.0000
20
-160.0000
21
-160.0000
30
0.0000
31
0.0000
0
LINE
8
STRUCT
10
3800.0000
11
3800.0000
20
-160.0000
21
2890.0000
30
0.0000
31
0.0000
0
LINE
8
STRUCT
10
3800.0000
11
-160.0000
20
2890.0000
21
2890.0000
30
0.0000
31
0.0000
0
LINE
8
STRUCT
10
-160.0000
11
-160.0000
20
2890.0000
21
-160.0000
30
0.0000
31
0.0000
0
LINE
8
WALL
10
0.0000
11
3640.0000
20
0.0000
21
0.0000
30
0.0000
31
0.0000
0
LINE
8
WALL
10
3640.0000
11
3640.0000
20
0.0000
21
2730.0000
30
0.0000
31
0.0000
0
LINE
8
WALL
10
3640.0000
11
0.0000
20
2730.0000
21
2730.0000
30
0.0000
31
0.0000
0
LINE
8
WALL
10
0.0000
11
0.0000
20
2730.0000
21
0.0000
30
0.0000
31
0.0000
0
LINE
8
ROOM
10
0.0000
11
3640.0000
20
955.0000
21
955.0000
30
0.0000
31
0.0000
0
LINE
8
ROOM
10
3640.0000
11
3640.0000
20
955.0000
21
2730.0000
30
0.0000
31
0.0000
0
LINE
8
ROOM
10
3640.0000
11
0.0000
20
2730.0000
21
2730.0000
30
0.0000
31
0.0000
0
LINE
8
ROOM
10
0.0000
11
0.0000
20
2730.0000
21
955.0000
30
0.0000
31
0.0000
0
TEXT
1
居室+ロフト
8
TEXT
10
1620.0000
11
1620.0000
20
1962.5000
21
2077.5000
30
0.0000
31
0.0000
40
230.0000
72
1.0000
0
TEXT
1
6.5m²
8
TEXT
10
1720.0000
11
1720.0000
20
1762.5000
21
1862.5000
30
0.0000
31
0.0000
40
200.0000
72
1.0000
0
LINE
8
ROOM
10
0.0000
11
3640.0000
20
0.0000
21
0.0000
30
0.0000
31
0.0000
0
LINE
8
ROOM
10
3640.0000
11
3640.0000
20
0.0000
21
955.0000
30
0.0000
31
0.0000
0
LINE
8
ROOM
10
3640.0000
11
0.0000
20
955.0000
21
955.0000
30
0.0000
31
0.0000
0
LINE
8
ROOM
10
0.0000
11
0.0000
20
955.0000
21
0.0000
30
0.0000
31
0.0000
0
TEXT
1
玄関+水回り
8
TEXT
10
1620.0000
11
1620.0000
20
597.5000
21
712.5000
30
0.0000
31
0.0000
40
230.0000
72
1.0000
0
TEXT
1
3.5m²
8
TEXT
10
1720.0000
11
1720.0000
20
397.5000
21
497.5000
30
0.0000
31
0.0000
40
200.0000
72
1.0000
0
LINE
8
DECK
10
3640.0000
11
4732.0000
20
0.0000
21
0.0000
30
0.0000
31
0.0000
0
LINE
8
DECK
10
4732.0000
11
4732.0000
20
0.0000
21
2730.0000
30
0.0000
31
0.0000
0
LINE
8
DECK
10
4732.0000
11
3640.0000
20
2730.0000
21
2730.0000
30
0.0000
31
0.0000
0
LINE
8
DECK
10
3640.0000
11
3640.0000
20
2730.0000
21
0.0000
30
0.0000
31
0.0000
0
TEXT
1
デッキ
8
TEXT
10
3986.0000
11
3986.0000
20
1365.0000
21
1480.0000
30
0.0000
31
0.0000
40
230.0000
72
1.0000
0
LINE
8
DIM
10
0.0000
11
0.0000
20
0.0000
21
-700.0000
30
0.0000
31
0.0000
0
LINE
8
DIM
10
3640.0000
11
3640.0000
20
0.0000
21
-700.0000
30
0.0000
31
0.0000
0
LINE
8
DIM
10
0.0000
11
3640.0000
20
-700.0000
21
-700.0000
30
0.0000
31
0.0000
0
TEXT
1
3640mm
8
DIM
10
1820.0000
11
1820.0000
20
-600.0000
21
-510.0000
30
0.0000
31
0.0000
40
180.0000
72
1.0000
0
LINE
8
DIM
10
0.0000
11
-700.0000
20
0.0000
21
0.0000
30
0.0000
31
0.0000
0
LINE
8
DIM
10
0.0000
11
-700.0000
20
2730.0000
21
2730.0000
30
0.0000
31
0.0000
0
LINE
8
DIM
10
-700.0000
11
-700.0000
20
0.0000
21
2730.0000
30
0.0000
31
0.0000
0
TEXT
1
2730mm
8
DIM
10
-600.0000
11
-600.0000
20
1365.0000
21
1455.0000
30
0.0000
31
0.0000
40
180.0000
72
1.0000
0
LINE
8
STRUCT
10
0.0000
11
4932.0000
20
3830.0000
21
3830.0000
30
0.0000
31
0.0000
0
TEXT
1
SOLUNA BUILD — MEBUKI
8
TEXT
10
0.0000
11
0.0000
20
4530.0000
21
4755.0000
30
0.0000
31
0.0000
40
450.0000
72
1.0000
0
TEXT
1
W 3,640 × D 2,730 mm
8
TEXT
10
0.0000
11
0.0000
20
4210.0000
21
4360.0000
30
0.0000
31
0.0000
40
300.0000
72
1.0000
0
TEXT
1
床面積:9.9m²　工期:5週　材料費:¥84万
8
TEXT
10
0.0000
11
0.0000
20
3980.0000
21
4100.0000
30
0.0000
31
0.0000
40
240.0000
72
1.0000
0
TEXT
1
910mmモジュール / SIPs断熱 / 単位:mm / 縮尺1:50
8
TEXT
10
0.0000
11
0.0000
20
3780.0000
21
3890.0000
30
0.0000
31
0.0000
40
220.0000
72
1.0000
0
TEXT
1
↑
8
TEXT
10
5132.0000
11
5132.0000
20
1565.0000
21
1815.0000
30
0.0000
31
0.0000
40
500.0000
72
1.0000
0
TEXT
1
N
8
TEXT
10
5132.0000
11
5132.0000
20
1265.0000
21
1415.0000
30
0.0000
31
0.0000
40
300.0000
72
1.0000
0
ENDSEC
0
EOF
