0
SECTION
2
HEADER
9
$ACADVER
1
AC1015
9
$INSUNITS
70
4
9
$LUNITS
70
4
9
$MEASUREMENT
70
1
0
ENDSEC
0
SECTION
2
TABLES
0
TABLE
2
LAYER
70
9
0
LAYER
2
0
70
0
62
7
6
Continuous
0
LAYER
2
WALL
70
0
62
2
6
Continuous
0
LAYER
2
ROOM
70
0
62
3
6
Continuous
0
LAYER
2
GRID
70
0
62
8
6
Continuous
0
LAYER
2
TEXT
70
0
62
7
6
Continuous
0
LAYER
2
DIM
70
0
62
4
6
Continuous
0
LAYER
2
DECK
70
0
62
3
6
Continuous
0
LAYER
2
STRUCT
70
0
62
6
6
Continuous
0
LAYER
2
DOME
70
0
62
5
6
Continuous
0
ENDTABLE
0
ENDSEC
0
SECTION
2
ENTITIES
0
LINE
8
GRID
10
0.0000
11
0.0000
20
0.0000
21
5460.0000
30
0.0000
31
0.0000
0
LINE
8
GRID
10
910.0000
11
910.0000
20
0.0000
21
5460.0000
30
0.0000
31
0.0000
0
LINE
8
GRID
10
1820.0000
11
1820.0000
20
0.0000
21
5460.0000
30
0.0000
31
0.0000
0
LINE
8
GRID
10
2730.0000
11
2730.0000
20
0.0000
21
5460.0000
30
0.0000
31
0.0000
0
LINE
8
GRID
10
3640.0000
11
3640.0000
20
0.0000
21
5460.0000
30
0.0000
31
0.0000
0
LINE
8
GRID
10
4550.0000
11
4550.0000
20
0.0000
21
5460.0000
30
0.0000
31
0.0000
0
LINE
8
GRID
10
5460.0000
11
5460.0000
20
0.0000
21
5460.0000
30
0.0000
31
0.0000
0
LINE
8
GRID
10
6370.0000
11
6370.0000
20
0.0000
21
5460.0000
30
0.0000
31
0.0000
0
LINE
8
GRID
10
7280.0000
11
7280.0000
20
0.0000
21
5460.0000
30
0.0000
31
0.0000
0
LINE
8
GRID
10
0.0000
11
7280.0000
20
0.0000
21
0.0000
30
0.0000
31
0.0000
0
LINE
8
GRID
10
0.0000
11
7280.0000
20
910.0000
21
910.0000
30
0.0000
31
0.0000
0
LINE
8
GRID
10
0.0000
11
7280.0000
20
1820.0000
21
1820.0000
30
0.0000
31
0.0000
0
LINE
8
GRID
10
0.0000
11
7280.0000
20
2730.0000
21
2730.0000
30
0.0000
31
0.0000
0
LINE
8
GRID
10
0.0000
11
7280.0000
20
3640.0000
21
3640.0000
30
0.0000
31
0.0000
0
LINE
8
GRID
10
0.0000
11
7280.0000
20
4550.0000
21
4550.0000
30
0.0000
31
0.0000
0
LINE
8
GRID
10
0.0000
11
7280.0000
20
5460.0000
21
5460.0000
30
0.0000
31
0.0000
0
LINE
8
STRUCT
10
-160.0000
11
7440.0000
20
-160.0000
21
-160.0000
30
0.0000
31
0.0000
0
LINE
8
STRUCT
10
7440.0000
11
7440.0000
20
-160.0000
21
5620.0000
30
0.0000
31
0.0000
0
LINE
8
STRUCT
10
7440.0000
11
-160.0000
20
5620.0000
21
5620.0000
30
0.0000
31
0.0000
0
LINE
8
STRUCT
10
-160.0000
11
-160.0000
20
5620.0000
21
-160.0000
30
0.0000
31
0.0000
0
LINE
8
WALL
10
0.0000
11
7280.0000
20
0.0000
21
0.0000
30
0.0000
31
0.0000
0
LINE
8
WALL
10
7280.0000
11
7280.0000
20
0.0000
21
5460.0000
30
0.0000
31
0.0000
0
LINE
8
WALL
10
7280.0000
11
0.0000
20
5460.0000
21
5460.0000
30
0.0000
31
0.0000
0
LINE
8
WALL
10
0.0000
11
0.0000
20
5460.0000
21
0.0000
30
0.0000
31
0.0000
0
LINE
8
ROOM
10
0.0000
11
7280.0000
20
2457.0000
21
2457.0000
30
0.0000
31
0.0000
0
LINE
8
ROOM
10
7280.0000
11
7280.0000
20
2457.0000
21
5460.0000
30
0.0000
31
0.0000
0
LINE
8
ROOM
10
7280.0000
11
0.0000
20
5460.0000
21
5460.0000
30
0.0000
31
0.0000
0
LINE
8
ROOM
10
0.0000
11
0.0000
20
5460.0000
21
2457.0000
30
0.0000
31
0.0000
0
TEXT
1
LDK
8
TEXT
10
3440.0000
11
3440.0000
20
4078.5000
21
4193.5000
30
0.0000
31
0.0000
40
230.0000
72
1.0000
0
TEXT
1
21.9m²
8
TEXT
10
3540.0000
11
3540.0000
20
3878.5000
21
3978.5000
30
0.0000
31
0.0000
40
200.0000
72
1.0000
0
LINE
8
ROOM
10
0.0000
11
3640.0000
20
1201.0000
21
1201.0000
30
0.0000
31
0.0000
0
LINE
8
ROOM
10
3640.0000
11
3640.0000
20
1201.0000
21
2457.0000
30
0.0000
31
0.0000
0
LINE
8
ROOM
10
3640.0000
11
0.0000
20
2457.0000
21
2457.0000
30
0.0000
31
0.0000
0
LINE
8
ROOM
10
0.0000
11
0.0000
20
2457.0000
21
1201.0000
30
0.0000
31
0.0000
0
TEXT
1
主寝室
8
TEXT
10
1620.0000
11
1620.0000
20
1949.0000
21
2064.0000
30
0.0000
31
0.0000
40
230.0000
72
1.0000
0
TEXT
1
4.6m²
8
TEXT
10
1720.0000
11
1720.0000
20
1749.0000
21
1849.0000
30
0.0000
31
0.0000
40
200.0000
72
1.0000
0
LINE
8
ROOM
10
3640.0000
11
7280.0000
20
1201.0000
21
1201.0000
30
0.0000
31
0.0000
0
LINE
8
ROOM
10
7280.0000
11
7280.0000
20
1201.0000
21
2457.0000
30
0.0000
31
0.0000
0
LINE
8
ROOM
10
7280.0000
11
3640.0000
20
2457.0000
21
2457.0000
30
0.0000
31
0.0000
0
LINE
8
ROOM
10
3640.0000
11
3640.0000
20
2457.0000
21
1201.0000
30
0.0000
31
0.0000
0
TEXT
1
寝室2
8
TEXT
10
5260.0000
11
5260.0000
20
1949.0000
21
2064.0000
30
0.0000
31
0.0000
40
230.0000
72
1.0000
0
TEXT
1
4.6m²
8
TEXT
10
5360.0000
11
5360.0000
20
1749.0000
21
1849.0000
30
0.0000
31
0.0000
40
200.0000
72
1.0000
0
LINE
8
ROOM
10
0.0000
11
7280.0000
20
0.0000
21
0.0000
30
0.0000
31
0.0000
0
LINE
8
ROOM
10
7280.0000
11
7280.0000
20
0.0000
21
1201.0000
30
0.0000
31
0.0000
0
LINE
8
ROOM
10
7280.0000
11
0.0000
20
1201.0000
21
1201.0000
30
0.0000
31
0.0000
0
LINE
8
ROOM
10
0.0000
11
0.0000
20
1201.0000
21
0.0000
30
0.0000
31
0.0000
0
TEXT
1
水回り
8
TEXT
10
3440.0000
11
3440.0000
20
720.5000
21
835.5000
30
0.0000
31
0.0000
40
230.0000
72
1.0000
0
TEXT
1
8.7m²
8
TEXT
10
3540.0000
11
3540.0000
20
520.5000
21
620.5000
30
0.0000
31
0.0000
40
200.0000
72
1.0000
0
LINE
8
DECK
10
7280.0000
11
9464.0000
20
0.0000
21
0.0000
30
0.0000
31
0.0000
0
LINE
8
DECK
10
9464.0000
11
9464.0000
20
0.0000
21
5460.0000
30
0.0000
31
0.0000
0
LINE
8
DECK
10
9464.0000
11
7280.0000
20
5460.0000
21
5460.0000
30
0.0000
31
0.0000
0
LINE
8
DECK
10
7280.0000
11
7280.0000
20
5460.0000
21
0.0000
30
0.0000
31
0.0000
0
TEXT
1
デッキ
8
TEXT
10
8172.0000
11
8172.0000
20
2730.0000
21
2845.0000
30
0.0000
31
0.0000
40
230.0000
72
1.0000
0
LINE
8
DIM
10
0.0000
11
0.0000
20
0.0000
21
-700.0000
30
0.0000
31
0.0000
0
LINE
8
DIM
10
7280.0000
11
7280.0000
20
0.0000
21
-700.0000
30
0.0000
31
0.0000
0
LINE
8
DIM
10
0.0000
11
7280.0000
20
-700.0000
21
-700.0000
30
0.0000
31
0.0000
0
TEXT
1
7280mm
8
DIM
10
3640.0000
11
3640.0000
20
-600.0000
21
-510.0000
30
0.0000
31
0.0000
40
180.0000
72
1.0000
0
LINE
8
DIM
10
0.0000
11
-700.0000
20
0.0000
21
0.0000
30
0.0000
31
0.0000
0
LINE
8
DIM
10
0.0000
11
-700.0000
20
5460.0000
21
5460.0000
30
0.0000
31
0.0000
0
LINE
8
DIM
10
-700.0000
11
-700.0000
20
0.0000
21
5460.0000
30
0.0000
31
0.0000
0
TEXT
1
5460mm
8
DIM
10
-600.0000
11
-600.0000
20
2730.0000
21
2820.0000
30
0.0000
31
0.0000
40
180.0000
72
1.0000
0
LINE
8
STRUCT
10
0.0000
11
9664.0000
20
6560.0000
21
6560.0000
30
0.0000
31
0.0000
0
TEXT
1
SOLUNA BUILD — AN
8
TEXT
10
0.0000
11
0.0000
20
7260.0000
21
7485.0000
30
0.0000
31
0.0000
40
450.0000
72
1.0000
0
TEXT
1
W 7,280 × D 5,460 mm
8
TEXT
10
0.0000
11
0.0000
20
6940.0000
21
7090.0000
30
0.0000
31
0.0000
40
300.0000
72
1.0000
0
TEXT
1
床面積:40m²　工期:11週　材料費:¥527万
8
TEXT
10
0.0000
11
0.0000
20
6710.0000
21
6830.0000
30
0.0000
31
0.0000
40
240.0000
72
1.0000
0
TEXT
1
910mmモジュール / SIPs断熱 / 単位:mm / 縮尺1:50
8
TEXT
10
0.0000
11
0.0000
20
6510.0000
21
6620.0000
30
0.0000
31
0.0000
40
220.0000
72
1.0000
0
TEXT
1
↑
8
TEXT
10
9864.0000
11
9864.0000
20
2930.0000
21
3180.0000
30
0.0000
31
0.0000
40
500.0000
72
1.0000
0
TEXT
1
N
8
TEXT
10
9864.0000
11
9864.0000
20
2630.0000
21
2780.0000
30
0.0000
31
0.0000
40
300.0000
72
1.0000
0
ENDSEC
0
EOF
