0
SECTION
2
HEADER
9
$ACADVER
1
AC1015
9
$INSUNITS
70
4
9
$LUNITS
70
4
9
$MEASUREMENT
70
1
0
ENDSEC
0
SECTION
2
TABLES
0
TABLE
2
LAYER
70
9
0
LAYER
2
0
70
0
62
7
6
Continuous
0
LAYER
2
WALL
70
0
62
2
6
Continuous
0
LAYER
2
ROOM
70
0
62
3
6
Continuous
0
LAYER
2
GRID
70
0
62
8
6
Continuous
0
LAYER
2
TEXT
70
0
62
7
6
Continuous
0
LAYER
2
DIM
70
0
62
4
6
Continuous
0
LAYER
2
DECK
70
0
62
3
6
Continuous
0
LAYER
2
STRUCT
70
0
62
6
6
Continuous
0
LAYER
2
DOME
70
0
62
5
6
Continuous
0
ENDTABLE
0
ENDSEC
0
SECTION
2
ENTITIES
0
LINE
8
GRID
10
0.0000
11
0.0000
20
0.0000
21
7280.0000
30
0.0000
31
0.0000
0
LINE
8
GRID
10
910.0000
11
910.0000
20
0.0000
21
7280.0000
30
0.0000
31
0.0000
0
LINE
8
GRID
10
1820.0000
11
1820.0000
20
0.0000
21
7280.0000
30
0.0000
31
0.0000
0
LINE
8
GRID
10
2730.0000
11
2730.0000
20
0.0000
21
7280.0000
30
0.0000
31
0.0000
0
LINE
8
GRID
10
3640.0000
11
3640.0000
20
0.0000
21
7280.0000
30
0.0000
31
0.0000
0
LINE
8
GRID
10
4550.0000
11
4550.0000
20
0.0000
21
7280.0000
30
0.0000
31
0.0000
0
LINE
8
GRID
10
5460.0000
11
5460.0000
20
0.0000
21
7280.0000
30
0.0000
31
0.0000
0
LINE
8
GRID
10
6370.0000
11
6370.0000
20
0.0000
21
7280.0000
30
0.0000
31
0.0000
0
LINE
8
GRID
10
7280.0000
11
7280.0000
20
0.0000
21
7280.0000
30
0.0000
31
0.0000
0
LINE
8
GRID
10
8190.0000
11
8190.0000
20
0.0000
21
7280.0000
30
0.0000
31
0.0000
0
LINE
8
GRID
10
9100.0000
11
9100.0000
20
0.0000
21
7280.0000
30
0.0000
31
0.0000
0
LINE
8
GRID
10
10010.0000
11
10010.0000
20
0.0000
21
7280.0000
30
0.0000
31
0.0000
0
LINE
8
GRID
10
10920.0000
11
10920.0000
20
0.0000
21
7280.0000
30
0.0000
31
0.0000
0
LINE
8
GRID
10
11830.0000
11
11830.0000
20
0.0000
21
7280.0000
30
0.0000
31
0.0000
0
LINE
8
GRID
10
12740.0000
11
12740.0000
20
0.0000
21
7280.0000
30
0.0000
31
0.0000
0
LINE
8
GRID
10
0.0000
11
12740.0000
20
0.0000
21
0.0000
30
0.0000
31
0.0000
0
LINE
8
GRID
10
0.0000
11
12740.0000
20
910.0000
21
910.0000
30
0.0000
31
0.0000
0
LINE
8
GRID
10
0.0000
11
12740.0000
20
1820.0000
21
1820.0000
30
0.0000
31
0.0000
0
LINE
8
GRID
10
0.0000
11
12740.0000
20
2730.0000
21
2730.0000
30
0.0000
31
0.0000
0
LINE
8
GRID
10
0.0000
11
12740.0000
20
3640.0000
21
3640.0000
30
0.0000
31
0.0000
0
LINE
8
GRID
10
0.0000
11
12740.0000
20
4550.0000
21
4550.0000
30
0.0000
31
0.0000
0
LINE
8
GRID
10
0.0000
11
12740.0000
20
5460.0000
21
5460.0000
30
0.0000
31
0.0000
0
LINE
8
GRID
10
0.0000
11
12740.0000
20
6370.0000
21
6370.0000
30
0.0000
31
0.0000
0
LINE
8
GRID
10
0.0000
11
12740.0000
20
7280.0000
21
7280.0000
30
0.0000
31
0.0000
0
LINE
8
STRUCT
10
-160.0000
11
12900.0000
20
-160.0000
21
-160.0000
30
0.0000
31
0.0000
0
LINE
8
STRUCT
10
12900.0000
11
12900.0000
20
-160.0000
21
7440.0000
30
0.0000
31
0.0000
0
LINE
8
STRUCT
10
12900.0000
11
-160.0000
20
7440.0000
21
7440.0000
30
0.0000
31
0.0000
0
LINE
8
STRUCT
10
-160.0000
11
-160.0000
20
7440.0000
21
-160.0000
30
0.0000
31
0.0000
0
LINE
8
WALL
10
0.0000
11
12740.0000
20
0.0000
21
0.0000
30
0.0000
31
0.0000
0
LINE
8
WALL
10
12740.0000
11
12740.0000
20
0.0000
21
7280.0000
30
0.0000
31
0.0000
0
LINE
8
WALL
10
12740.0000
11
0.0000
20
7280.0000
21
7280.0000
30
0.0000
31
0.0000
0
LINE
8
WALL
10
0.0000
11
0.0000
20
7280.0000
21
0.0000
30
0.0000
31
0.0000
0
LINE
8
ROOM
10
0.0000
11
12740.0000
20
3276.0000
21
3276.0000
30
0.0000
31
0.0000
0
LINE
8
ROOM
10
12740.0000
11
12740.0000
20
3276.0000
21
7280.0000
30
0.0000
31
0.0000
0
LINE
8
ROOM
10
12740.0000
11
0.0000
20
7280.0000
21
7280.0000
30
0.0000
31
0.0000
0
LINE
8
ROOM
10
0.0000
11
0.0000
20
7280.0000
21
3276.0000
30
0.0000
31
0.0000
0
TEXT
1
食堂・ホール
8
TEXT
10
6170.0000
11
6170.0000
20
5398.0000
21
5513.0000
30
0.0000
31
0.0000
40
230.0000
72
1.0000
0
TEXT
1
51.0m²
8
TEXT
10
6270.0000
11
6270.0000
20
5198.0000
21
5298.0000
30
0.0000
31
0.0000
40
200.0000
72
1.0000
0
LINE
8
ROOM
10
5733.0000
11
12740.0000
20
0.0000
21
0.0000
30
0.0000
31
0.0000
0
LINE
8
ROOM
10
12740.0000
11
12740.0000
20
0.0000
21
3276.0000
30
0.0000
31
0.0000
0
LINE
8
ROOM
10
12740.0000
11
5733.0000
20
3276.0000
21
3276.0000
30
0.0000
31
0.0000
0
LINE
8
ROOM
10
5733.0000
11
5733.0000
20
3276.0000
21
0.0000
30
0.0000
31
0.0000
0
TEXT
1
厨房
8
TEXT
10
9036.5000
11
9036.5000
20
1758.0000
21
1873.0000
30
0.0000
31
0.0000
40
230.0000
72
1.0000
0
TEXT
1
23.0m²
8
TEXT
10
9136.5000
11
9136.5000
20
1558.0000
21
1658.0000
30
0.0000
31
0.0000
40
200.0000
72
1.0000
0
LINE
8
ROOM
10
0.0000
11
5733.0000
20
0.0000
21
0.0000
30
0.0000
31
0.0000
0
LINE
8
ROOM
10
5733.0000
11
5733.0000
20
0.0000
21
3276.0000
30
0.0000
31
0.0000
0
LINE
8
ROOM
10
5733.0000
11
0.0000
20
3276.0000
21
3276.0000
30
0.0000
31
0.0000
0
LINE
8
ROOM
10
0.0000
11
0.0000
20
3276.0000
21
0.0000
30
0.0000
31
0.0000
0
TEXT
1
水回り（男女）
8
TEXT
10
2666.5000
11
2666.5000
20
1758.0000
21
1873.0000
30
0.0000
31
0.0000
40
230.0000
72
1.0000
0
TEXT
1
18.8m²
8
TEXT
10
2766.5000
11
2766.5000
20
1558.0000
21
1658.0000
30
0.0000
31
0.0000
40
200.0000
72
1.0000
0
LINE
8
DECK
10
12740.0000
11
16562.0000
20
0.0000
21
0.0000
30
0.0000
31
0.0000
0
LINE
8
DECK
10
16562.0000
11
16562.0000
20
0.0000
21
7280.0000
30
0.0000
31
0.0000
0
LINE
8
DECK
10
16562.0000
11
12740.0000
20
7280.0000
21
7280.0000
30
0.0000
31
0.0000
0
LINE
8
DECK
10
12740.0000
11
12740.0000
20
7280.0000
21
0.0000
30
0.0000
31
0.0000
0
TEXT
1
デッキ
8
TEXT
10
14451.0000
11
14451.0000
20
3640.0000
21
3755.0000
30
0.0000
31
0.0000
40
230.0000
72
1.0000
0
LINE
8
DIM
10
0.0000
11
0.0000
20
0.0000
21
-700.0000
30
0.0000
31
0.0000
0
LINE
8
DIM
10
12740.0000
11
12740.0000
20
0.0000
21
-700.0000
30
0.0000
31
0.0000
0
LINE
8
DIM
10
0.0000
11
12740.0000
20
-700.0000
21
-700.0000
30
0.0000
31
0.0000
0
TEXT
1
12740mm
8
DIM
10
6370.0000
11
6370.0000
20
-600.0000
21
-510.0000
30
0.0000
31
0.0000
40
180.0000
72
1.0000
0
LINE
8
DIM
10
0.0000
11
-700.0000
20
0.0000
21
0.0000
30
0.0000
31
0.0000
0
LINE
8
DIM
10
0.0000
11
-700.0000
20
7280.0000
21
7280.0000
30
0.0000
31
0.0000
0
LINE
8
DIM
10
-700.0000
11
-700.0000
20
0.0000
21
7280.0000
30
0.0000
31
0.0000
0
TEXT
1
7280mm
8
DIM
10
-600.0000
11
-600.0000
20
3640.0000
21
3730.0000
30
0.0000
31
0.0000
40
180.0000
72
1.0000
0
TEXT
1
[ 2F LAYOUT ]
8
TEXT
10
0.0000
11
0.0000
20
9480.0000
21
9630.0000
30
0.0000
31
0.0000
40
300.0000
72
1.0000
0
LINE
8
WALL
10
0.0000
11
12740.0000
20
9060.0000
21
9060.0000
30
0.0000
31
0.0000
0
LINE
8
WALL
10
12740.0000
11
12740.0000
20
9060.0000
21
16340.0000
30
0.0000
31
0.0000
0
LINE
8
WALL
10
12740.0000
11
0.0000
20
16340.0000
21
16340.0000
30
0.0000
31
0.0000
0
LINE
8
WALL
10
0.0000
11
0.0000
20
16340.0000
21
9060.0000
30
0.0000
31
0.0000
0
LINE
8
ROOM
10
0.0000
11
1274.0000
20
9080.0000
21
9080.0000
30
0.0000
31
0.0000
0
LINE
8
ROOM
10
1274.0000
11
1274.0000
20
9080.0000
21
16360.0000
30
0.0000
31
0.0000
0
LINE
8
ROOM
10
1274.0000
11
0.0000
20
16360.0000
21
16360.0000
30
0.0000
31
0.0000
0
LINE
8
ROOM
10
0.0000
11
0.0000
20
16360.0000
21
9080.0000
30
0.0000
31
0.0000
0
TEXT
1
個室1号
8
TEXT
10
537.0000
11
537.0000
20
12720.0000
21
12810.0000
30
0.0000
31
0.0000
40
180.0000
72
1.0000
0
LINE
8
ROOM
10
1274.0000
11
2548.0000
20
9080.0000
21
9080.0000
30
0.0000
31
0.0000
0
LINE
8
ROOM
10
2548.0000
11
2548.0000
20
9080.0000
21
16360.0000
30
0.0000
31
0.0000
0
LINE
8
ROOM
10
2548.0000
11
1274.0000
20
16360.0000
21
16360.0000
30
0.0000
31
0.0000
0
LINE
8
ROOM
10
1274.0000
11
1274.0000
20
16360.0000
21
9080.0000
30
0.0000
31
0.0000
0
TEXT
1
個室2号
8
TEXT
10
1811.0000
11
1811.0000
20
12720.0000
21
12810.0000
30
0.0000
31
0.0000
40
180.0000
72
1.0000
0
LINE
8
ROOM
10
2548.0000
11
3822.0000
20
9080.0000
21
9080.0000
30
0.0000
31
0.0000
0
LINE
8
ROOM
10
3822.0000
11
3822.0000
20
9080.0000
21
16360.0000
30
0.0000
31
0.0000
0
LINE
8
ROOM
10
3822.0000
11
2548.0000
20
16360.0000
21
16360.0000
30
0.0000
31
0.0000
0
LINE
8
ROOM
10
2548.0000
11
2548.0000
20
16360.0000
21
9080.0000
30
0.0000
31
0.0000
0
TEXT
1
個室3号
8
TEXT
10
3085.0000
11
3085.0000
20
12720.0000
21
12810.0000
30
0.0000
31
0.0000
40
180.0000
72
1.0000
0
LINE
8
ROOM
10
3822.0000
11
5096.0000
20
9080.0000
21
9080.0000
30
0.0000
31
0.0000
0
LINE
8
ROOM
10
5096.0000
11
5096.0000
20
9080.0000
21
16360.0000
30
0.0000
31
0.0000
0
LINE
8
ROOM
10
5096.0000
11
3822.0000
20
16360.0000
21
16360.0000
30
0.0000
31
0.0000
0
LINE
8
ROOM
10
3822.0000
11
3822.0000
20
16360.0000
21
9080.0000
30
0.0000
31
0.0000
0
TEXT
1
個室4号
8
TEXT
10
4359.0000
11
4359.0000
20
12720.0000
21
12810.0000
30
0.0000
31
0.0000
40
180.0000
72
1.0000
0
LINE
8
ROOM
10
5096.0000
11
6370.0000
20
9080.0000
21
9080.0000
30
0.0000
31
0.0000
0
LINE
8
ROOM
10
6370.0000
11
6370.0000
20
9080.0000
21
16360.0000
30
0.0000
31
0.0000
0
LINE
8
ROOM
10
6370.0000
11
5096.0000
20
16360.0000
21
16360.0000
30
0.0000
31
0.0000
0
LINE
8
ROOM
10
5096.0000
11
5096.0000
20
16360.0000
21
9080.0000
30
0.0000
31
0.0000
0
TEXT
1
個室5号
8
TEXT
10
5633.0000
11
5633.0000
20
12720.0000
21
12810.0000
30
0.0000
31
0.0000
40
180.0000
72
1.0000
0
LINE
8
ROOM
10
6370.0000
11
7644.0000
20
9080.0000
21
9080.0000
30
0.0000
31
0.0000
0
LINE
8
ROOM
10
7644.0000
11
7644.0000
20
9080.0000
21
16360.0000
30
0.0000
31
0.0000
0
LINE
8
ROOM
10
7644.0000
11
6370.0000
20
16360.0000
21
16360.0000
30
0.0000
31
0.0000
0
LINE
8
ROOM
10
6370.0000
11
6370.0000
20
16360.0000
21
9080.0000
30
0.0000
31
0.0000
0
TEXT
1
個室6号
8
TEXT
10
6907.0000
11
6907.0000
20
12720.0000
21
12810.0000
30
0.0000
31
0.0000
40
180.0000
72
1.0000
0
LINE
8
ROOM
10
7644.0000
11
8918.0000
20
9080.0000
21
9080.0000
30
0.0000
31
0.0000
0
LINE
8
ROOM
10
8918.0000
11
8918.0000
20
9080.0000
21
16360.0000
30
0.0000
31
0.0000
0
LINE
8
ROOM
10
8918.0000
11
7644.0000
20
16360.0000
21
16360.0000
30
0.0000
31
0.0000
0
LINE
8
ROOM
10
7644.0000
11
7644.0000
20
16360.0000
21
9080.0000
30
0.0000
31
0.0000
0
TEXT
1
個室7号
8
TEXT
10
8181.0000
11
8181.0000
20
12720.0000
21
12810.0000
30
0.0000
31
0.0000
40
180.0000
72
1.0000
0
LINE
8
ROOM
10
8918.0000
11
10192.0000
20
9080.0000
21
9080.0000
30
0.0000
31
0.0000
0
LINE
8
ROOM
10
10192.0000
11
10192.0000
20
9080.0000
21
16360.0000
30
0.0000
31
0.0000
0
LINE
8
ROOM
10
10192.0000
11
8918.0000
20
16360.0000
21
16360.0000
30
0.0000
31
0.0000
0
LINE
8
ROOM
10
8918.0000
11
8918.0000
20
16360.0000
21
9080.0000
30
0.0000
31
0.0000
0
TEXT
1
個室8号
8
TEXT
10
9455.0000
11
9455.0000
20
12720.0000
21
12810.0000
30
0.0000
31
0.0000
40
180.0000
72
1.0000
0
LINE
8
ROOM
10
10192.0000
11
11466.0000
20
9080.0000
21
9080.0000
30
0.0000
31
0.0000
0
LINE
8
ROOM
10
11466.0000
11
11466.0000
20
9080.0000
21
16360.0000
30
0.0000
31
0.0000
0
LINE
8
ROOM
10
11466.0000
11
10192.0000
20
16360.0000
21
16360.0000
30
0.0000
31
0.0000
0
LINE
8
ROOM
10
10192.0000
11
10192.0000
20
16360.0000
21
9080.0000
30
0.0000
31
0.0000
0
TEXT
1
個室9号
8
TEXT
10
10729.0000
11
10729.0000
20
12720.0000
21
12810.0000
30
0.0000
31
0.0000
40
180.0000
72
1.0000
0
LINE
8
ROOM
10
11466.0000
11
12740.0000
20
9080.0000
21
9080.0000
30
0.0000
31
0.0000
0
LINE
8
ROOM
10
12740.0000
11
12740.0000
20
9080.0000
21
16360.0000
30
0.0000
31
0.0000
0
LINE
8
ROOM
10
12740.0000
11
11466.0000
20
16360.0000
21
16360.0000
30
0.0000
31
0.0000
0
LINE
8
ROOM
10
11466.0000
11
11466.0000
20
16360.0000
21
9080.0000
30
0.0000
31
0.0000
0
TEXT
1
個室10号
8
TEXT
10
12003.0000
11
12003.0000
20
12720.0000
21
12810.0000
30
0.0000
31
0.0000
40
180.0000
72
1.0000
0
LINE
8
STRUCT
10
0.0000
11
16762.0000
20
18060.0000
21
18060.0000
30
0.0000
31
0.0000
0
TEXT
1
SOLUNA BUILD — GRAND
8
TEXT
10
0.0000
11
0.0000
20
18760.0000
21
18985.0000
30
0.0000
31
0.0000
40
450.0000
72
1.0000
0
TEXT
1
W 12,740 × D 7,280 mm（2階建て）
8
TEXT
10
0.0000
11
0.0000
20
18440.0000
21
18590.0000
30
0.0000
31
0.0000
40
300.0000
72
1.0000
0
TEXT
1
床面積:200m²　工期:36週　材料費:¥2200万
8
TEXT
10
0.0000
11
0.0000
20
18210.0000
21
18330.0000
30
0.0000
31
0.0000
40
240.0000
72
1.0000
0
TEXT
1
910mmモジュール / SIPs断熱 / 単位:mm / 縮尺1:50
8
TEXT
10
0.0000
11
0.0000
20
18010.0000
21
18120.0000
30
0.0000
31
0.0000
40
220.0000
72
1.0000
0
TEXT
1
↑
8
TEXT
10
16962.0000
11
16962.0000
20
3840.0000
21
4090.0000
30
0.0000
31
0.0000
40
500.0000
72
1.0000
0
TEXT
1
N
8
TEXT
10
16962.0000
11
16962.0000
20
3540.0000
21
3690.0000
30
0.0000
31
0.0000
40
300.0000
72
1.0000
0
ENDSEC
0
EOF
