0
SECTION
2
HEADER
9
$ACADVER
1
AC1015
9
$INSUNITS
70
4
9
$LUNITS
70
4
9
$MEASUREMENT
70
1
0
ENDSEC
0
SECTION
2
TABLES
0
TABLE
2
LAYER
70
9
0
LAYER
2
0
70
0
62
7
6
Continuous
0
LAYER
2
WALL
70
0
62
2
6
Continuous
0
LAYER
2
ROOM
70
0
62
3
6
Continuous
0
LAYER
2
GRID
70
0
62
8
6
Continuous
0
LAYER
2
TEXT
70
0
62
7
6
Continuous
0
LAYER
2
DIM
70
0
62
4
6
Continuous
0
LAYER
2
DECK
70
0
62
3
6
Continuous
0
LAYER
2
STRUCT
70
0
62
6
6
Continuous
0
LAYER
2
DOME
70
0
62
5
6
Continuous
0
ENDTABLE
0
ENDSEC
0
SECTION
2
ENTITIES
0
LINE
8
GRID
10
0.0000
11
0.0000
20
0.0000
21
9100.0000
30
0.0000
31
0.0000
0
LINE
8
GRID
10
910.0000
11
910.0000
20
0.0000
21
9100.0000
30
0.0000
31
0.0000
0
LINE
8
GRID
10
1820.0000
11
1820.0000
20
0.0000
21
9100.0000
30
0.0000
31
0.0000
0
LINE
8
GRID
10
2730.0000
11
2730.0000
20
0.0000
21
9100.0000
30
0.0000
31
0.0000
0
LINE
8
GRID
10
3640.0000
11
3640.0000
20
0.0000
21
9100.0000
30
0.0000
31
0.0000
0
LINE
8
GRID
10
4550.0000
11
4550.0000
20
0.0000
21
9100.0000
30
0.0000
31
0.0000
0
LINE
8
GRID
10
5460.0000
11
5460.0000
20
0.0000
21
9100.0000
30
0.0000
31
0.0000
0
LINE
8
GRID
10
6370.0000
11
6370.0000
20
0.0000
21
9100.0000
30
0.0000
31
0.0000
0
LINE
8
GRID
10
7280.0000
11
7280.0000
20
0.0000
21
9100.0000
30
0.0000
31
0.0000
0
LINE
8
GRID
10
8190.0000
11
8190.0000
20
0.0000
21
9100.0000
30
0.0000
31
0.0000
0
LINE
8
GRID
10
9100.0000
11
9100.0000
20
0.0000
21
9100.0000
30
0.0000
31
0.0000
0
LINE
8
GRID
10
10010.0000
11
10010.0000
20
0.0000
21
9100.0000
30
0.0000
31
0.0000
0
LINE
8
GRID
10
10920.0000
11
10920.0000
20
0.0000
21
9100.0000
30
0.0000
31
0.0000
0
LINE
8
GRID
10
11830.0000
11
11830.0000
20
0.0000
21
9100.0000
30
0.0000
31
0.0000
0
LINE
8
GRID
10
12740.0000
11
12740.0000
20
0.0000
21
9100.0000
30
0.0000
31
0.0000
0
LINE
8
GRID
10
13650.0000
11
13650.0000
20
0.0000
21
9100.0000
30
0.0000
31
0.0000
0
LINE
8
GRID
10
14560.0000
11
14560.0000
20
0.0000
21
9100.0000
30
0.0000
31
0.0000
0
LINE
8
GRID
10
15470.0000
11
15470.0000
20
0.0000
21
9100.0000
30
0.0000
31
0.0000
0
LINE
8
GRID
10
16380.0000
11
16380.0000
20
0.0000
21
9100.0000
30
0.0000
31
0.0000
0
LINE
8
GRID
10
0.0000
11
16380.0000
20
0.0000
21
0.0000
30
0.0000
31
0.0000
0
LINE
8
GRID
10
0.0000
11
16380.0000
20
910.0000
21
910.0000
30
0.0000
31
0.0000
0
LINE
8
GRID
10
0.0000
11
16380.0000
20
1820.0000
21
1820.0000
30
0.0000
31
0.0000
0
LINE
8
GRID
10
0.0000
11
16380.0000
20
2730.0000
21
2730.0000
30
0.0000
31
0.0000
0
LINE
8
GRID
10
0.0000
11
16380.0000
20
3640.0000
21
3640.0000
30
0.0000
31
0.0000
0
LINE
8
GRID
10
0.0000
11
16380.0000
20
4550.0000
21
4550.0000
30
0.0000
31
0.0000
0
LINE
8
GRID
10
0.0000
11
16380.0000
20
5460.0000
21
5460.0000
30
0.0000
31
0.0000
0
LINE
8
GRID
10
0.0000
11
16380.0000
20
6370.0000
21
6370.0000
30
0.0000
31
0.0000
0
LINE
8
GRID
10
0.0000
11
16380.0000
20
7280.0000
21
7280.0000
30
0.0000
31
0.0000
0
LINE
8
GRID
10
0.0000
11
16380.0000
20
8190.0000
21
8190.0000
30
0.0000
31
0.0000
0
LINE
8
GRID
10
0.0000
11
16380.0000
20
9100.0000
21
9100.0000
30
0.0000
31
0.0000
0
LINE
8
STRUCT
10
-160.0000
11
16540.0000
20
-160.0000
21
-160.0000
30
0.0000
31
0.0000
0
LINE
8
STRUCT
10
16540.0000
11
16540.0000
20
-160.0000
21
9260.0000
30
0.0000
31
0.0000
0
LINE
8
STRUCT
10
16540.0000
11
-160.0000
20
9260.0000
21
9260.0000
30
0.0000
31
0.0000
0
LINE
8
STRUCT
10
-160.0000
11
-160.0000
20
9260.0000
21
-160.0000
30
0.0000
31
0.0000
0
LINE
8
WALL
10
0.0000
11
16380.0000
20
0.0000
21
0.0000
30
0.0000
31
0.0000
0
LINE
8
WALL
10
16380.0000
11
16380.0000
20
0.0000
21
9100.0000
30
0.0000
31
0.0000
0
LINE
8
WALL
10
16380.0000
11
0.0000
20
9100.0000
21
9100.0000
30
0.0000
31
0.0000
0
LINE
8
WALL
10
0.0000
11
0.0000
20
9100.0000
21
0.0000
30
0.0000
31
0.0000
0
LINE
8
ROOM
10
0.0000
11
16380.0000
20
4095.0000
21
4095.0000
30
0.0000
31
0.0000
0
LINE
8
ROOM
10
16380.0000
11
16380.0000
20
4095.0000
21
9100.0000
30
0.0000
31
0.0000
0
LINE
8
ROOM
10
16380.0000
11
0.0000
20
9100.0000
21
9100.0000
30
0.0000
31
0.0000
0
LINE
8
ROOM
10
0.0000
11
0.0000
20
9100.0000
21
4095.0000
30
0.0000
31
0.0000
0
TEXT
1
大ホール+スパ
8
TEXT
10
7990.0000
11
7990.0000
20
6717.5000
21
6832.5000
30
0.0000
31
0.0000
40
230.0000
72
1.0000
0
TEXT
1
82.0m²
8
TEXT
10
8090.0000
11
8090.0000
20
6517.5000
21
6617.5000
30
0.0000
31
0.0000
40
200.0000
72
1.0000
0
LINE
8
ROOM
10
8190.0000
11
16380.0000
20
1820.0000
21
1820.0000
30
0.0000
31
0.0000
0
LINE
8
ROOM
10
16380.0000
11
16380.0000
20
1820.0000
21
4095.0000
30
0.0000
31
0.0000
0
LINE
8
ROOM
10
16380.0000
11
8190.0000
20
4095.0000
21
4095.0000
30
0.0000
31
0.0000
0
LINE
8
ROOM
10
8190.0000
11
8190.0000
20
4095.0000
21
1820.0000
30
0.0000
31
0.0000
0
TEXT
1
設備・厨房
8
TEXT
10
12085.0000
11
12085.0000
20
3077.5000
21
3192.5000
30
0.0000
31
0.0000
40
230.0000
72
1.0000
0
TEXT
1
18.6m²
8
TEXT
10
12185.0000
11
12185.0000
20
2877.5000
21
2977.5000
30
0.0000
31
0.0000
40
200.0000
72
1.0000
0
LINE
8
ROOM
10
0.0000
11
8190.0000
20
1820.0000
21
1820.0000
30
0.0000
31
0.0000
0
LINE
8
ROOM
10
8190.0000
11
8190.0000
20
1820.0000
21
4095.0000
30
0.0000
31
0.0000
0
LINE
8
ROOM
10
8190.0000
11
0.0000
20
4095.0000
21
4095.0000
30
0.0000
31
0.0000
0
LINE
8
ROOM
10
0.0000
11
0.0000
20
4095.0000
21
1820.0000
30
0.0000
31
0.0000
0
TEXT
1
水回り×6
8
TEXT
10
3895.0000
11
3895.0000
20
3077.5000
21
3192.5000
30
0.0000
31
0.0000
40
230.0000
72
1.0000
0
TEXT
1
18.6m²
8
TEXT
10
3995.0000
11
3995.0000
20
2877.5000
21
2977.5000
30
0.0000
31
0.0000
40
200.0000
72
1.0000
0
LINE
8
ROOM
10
0.0000
11
16380.0000
20
0.0000
21
0.0000
30
0.0000
31
0.0000
0
LINE
8
ROOM
10
16380.0000
11
16380.0000
20
0.0000
21
1820.0000
30
0.0000
31
0.0000
0
LINE
8
ROOM
10
16380.0000
11
0.0000
20
1820.0000
21
1820.0000
30
0.0000
31
0.0000
0
LINE
8
ROOM
10
0.0000
11
0.0000
20
1820.0000
21
0.0000
30
0.0000
31
0.0000
0
TEXT
1
サウナ+温浴
8
TEXT
10
7990.0000
11
7990.0000
20
1030.0000
21
1145.0000
30
0.0000
31
0.0000
40
230.0000
72
1.0000
0
TEXT
1
29.8m²
8
TEXT
10
8090.0000
11
8090.0000
20
830.0000
21
930.0000
30
0.0000
31
0.0000
40
200.0000
72
1.0000
0
LINE
8
DECK
10
16380.0000
11
21294.0000
20
0.0000
21
0.0000
30
0.0000
31
0.0000
0
LINE
8
DECK
10
21294.0000
11
21294.0000
20
0.0000
21
9100.0000
30
0.0000
31
0.0000
0
LINE
8
DECK
10
21294.0000
11
16380.0000
20
9100.0000
21
9100.0000
30
0.0000
31
0.0000
0
LINE
8
DECK
10
16380.0000
11
16380.0000
20
9100.0000
21
0.0000
30
0.0000
31
0.0000
0
TEXT
1
デッキ
8
TEXT
10
18637.0000
11
18637.0000
20
4550.0000
21
4665.0000
30
0.0000
31
0.0000
40
230.0000
72
1.0000
0
LINE
8
DIM
10
0.0000
11
0.0000
20
0.0000
21
-700.0000
30
0.0000
31
0.0000
0
LINE
8
DIM
10
16380.0000
11
16380.0000
20
0.0000
21
-700.0000
30
0.0000
31
0.0000
0
LINE
8
DIM
10
0.0000
11
16380.0000
20
-700.0000
21
-700.0000
30
0.0000
31
0.0000
0
TEXT
1
16380mm
8
DIM
10
8190.0000
11
8190.0000
20
-600.0000
21
-510.0000
30
0.0000
31
0.0000
40
180.0000
72
1.0000
0
LINE
8
DIM
10
0.0000
11
-700.0000
20
0.0000
21
0.0000
30
0.0000
31
0.0000
0
LINE
8
DIM
10
0.0000
11
-700.0000
20
9100.0000
21
9100.0000
30
0.0000
31
0.0000
0
LINE
8
DIM
10
-700.0000
11
-700.0000
20
0.0000
21
9100.0000
30
0.0000
31
0.0000
0
TEXT
1
9100mm
8
DIM
10
-600.0000
11
-600.0000
20
4550.0000
21
4640.0000
30
0.0000
31
0.0000
40
180.0000
72
1.0000
0
TEXT
1
[ 2F LAYOUT ]
8
TEXT
10
0.0000
11
0.0000
20
11300.0000
21
11450.0000
30
0.0000
31
0.0000
40
300.0000
72
1.0000
0
LINE
8
WALL
10
0.0000
11
16380.0000
20
10880.0000
21
10880.0000
30
0.0000
31
0.0000
0
LINE
8
WALL
10
16380.0000
11
16380.0000
20
10880.0000
21
19980.0000
30
0.0000
31
0.0000
0
LINE
8
WALL
10
16380.0000
11
0.0000
20
19980.0000
21
19980.0000
30
0.0000
31
0.0000
0
LINE
8
WALL
10
0.0000
11
0.0000
20
19980.0000
21
10880.0000
30
0.0000
31
0.0000
0
LINE
8
ROOM
10
0.0000
11
2342.0000
20
10900.0000
21
10900.0000
30
0.0000
31
0.0000
0
LINE
8
ROOM
10
2342.0000
11
2342.0000
20
10900.0000
21
16360.0000
30
0.0000
31
0.0000
0
LINE
8
ROOM
10
2342.0000
11
0.0000
20
16360.0000
21
16360.0000
30
0.0000
31
0.0000
0
LINE
8
ROOM
10
0.0000
11
0.0000
20
16360.0000
21
10900.0000
30
0.0000
31
0.0000
0
TEXT
1
個室1号
8
TEXT
10
1071.0000
11
1071.0000
20
13630.0000
21
13720.0000
30
0.0000
31
0.0000
40
180.0000
72
1.0000
0
LINE
8
ROOM
10
2342.0000
11
4685.0000
20
10900.0000
21
10900.0000
30
0.0000
31
0.0000
0
LINE
8
ROOM
10
4685.0000
11
4685.0000
20
10900.0000
21
16360.0000
30
0.0000
31
0.0000
0
LINE
8
ROOM
10
4685.0000
11
2342.0000
20
16360.0000
21
16360.0000
30
0.0000
31
0.0000
0
LINE
8
ROOM
10
2342.0000
11
2342.0000
20
16360.0000
21
10900.0000
30
0.0000
31
0.0000
0
TEXT
1
個室2号
8
TEXT
10
3413.5000
11
3413.5000
20
13630.0000
21
13720.0000
30
0.0000
31
0.0000
40
180.0000
72
1.0000
0
LINE
8
ROOM
10
4685.0000
11
7027.0000
20
10900.0000
21
10900.0000
30
0.0000
31
0.0000
0
LINE
8
ROOM
10
7027.0000
11
7027.0000
20
10900.0000
21
16360.0000
30
0.0000
31
0.0000
0
LINE
8
ROOM
10
7027.0000
11
4685.0000
20
16360.0000
21
16360.0000
30
0.0000
31
0.0000
0
LINE
8
ROOM
10
4685.0000
11
4685.0000
20
16360.0000
21
10900.0000
30
0.0000
31
0.0000
0
TEXT
1
個室3号
8
TEXT
10
5756.0000
11
5756.0000
20
13630.0000
21
13720.0000
30
0.0000
31
0.0000
40
180.0000
72
1.0000
0
LINE
8
ROOM
10
7027.0000
11
9369.0000
20
10900.0000
21
10900.0000
30
0.0000
31
0.0000
0
LINE
8
ROOM
10
9369.0000
11
9369.0000
20
10900.0000
21
16360.0000
30
0.0000
31
0.0000
0
LINE
8
ROOM
10
9369.0000
11
7027.0000
20
16360.0000
21
16360.0000
30
0.0000
31
0.0000
0
LINE
8
ROOM
10
7027.0000
11
7027.0000
20
16360.0000
21
10900.0000
30
0.0000
31
0.0000
0
TEXT
1
個室4号
8
TEXT
10
8098.0000
11
8098.0000
20
13630.0000
21
13720.0000
30
0.0000
31
0.0000
40
180.0000
72
1.0000
0
LINE
8
ROOM
10
9369.0000
11
11712.0000
20
10900.0000
21
10900.0000
30
0.0000
31
0.0000
0
LINE
8
ROOM
10
11712.0000
11
11712.0000
20
10900.0000
21
16360.0000
30
0.0000
31
0.0000
0
LINE
8
ROOM
10
11712.0000
11
9369.0000
20
16360.0000
21
16360.0000
30
0.0000
31
0.0000
0
LINE
8
ROOM
10
9369.0000
11
9369.0000
20
16360.0000
21
10900.0000
30
0.0000
31
0.0000
0
TEXT
1
個室5号
8
TEXT
10
10440.5000
11
10440.5000
20
13630.0000
21
13720.0000
30
0.0000
31
0.0000
40
180.0000
72
1.0000
0
LINE
8
ROOM
10
11712.0000
11
14054.0000
20
10900.0000
21
10900.0000
30
0.0000
31
0.0000
0
LINE
8
ROOM
10
14054.0000
11
14054.0000
20
10900.0000
21
16360.0000
30
0.0000
31
0.0000
0
LINE
8
ROOM
10
14054.0000
11
11712.0000
20
16360.0000
21
16360.0000
30
0.0000
31
0.0000
0
LINE
8
ROOM
10
11712.0000
11
11712.0000
20
16360.0000
21
10900.0000
30
0.0000
31
0.0000
0
TEXT
1
個室6号
8
TEXT
10
12783.0000
11
12783.0000
20
13630.0000
21
13720.0000
30
0.0000
31
0.0000
40
180.0000
72
1.0000
0
LINE
8
ROOM
10
14054.0000
11
16396.0000
20
10900.0000
21
10900.0000
30
0.0000
31
0.0000
0
LINE
8
ROOM
10
16396.0000
11
16396.0000
20
10900.0000
21
16360.0000
30
0.0000
31
0.0000
0
LINE
8
ROOM
10
16396.0000
11
14054.0000
20
16360.0000
21
16360.0000
30
0.0000
31
0.0000
0
LINE
8
ROOM
10
14054.0000
11
14054.0000
20
16360.0000
21
10900.0000
30
0.0000
31
0.0000
0
TEXT
1
個室7号
8
TEXT
10
15125.0000
11
15125.0000
20
13630.0000
21
13720.0000
30
0.0000
31
0.0000
40
180.0000
72
1.0000
0
LINE
8
ROOM
10
0.0000
11
2342.0000
20
16360.0000
21
16360.0000
30
0.0000
31
0.0000
0
LINE
8
ROOM
10
2342.0000
11
2342.0000
20
16360.0000
21
20000.0000
30
0.0000
31
0.0000
0
LINE
8
ROOM
10
2342.0000
11
0.0000
20
20000.0000
21
20000.0000
30
0.0000
31
0.0000
0
LINE
8
ROOM
10
0.0000
11
0.0000
20
20000.0000
21
16360.0000
30
0.0000
31
0.0000
0
TEXT
1
個室8号
8
TEXT
10
1071.0000
11
1071.0000
20
18180.0000
21
18270.0000
30
0.0000
31
0.0000
40
180.0000
72
1.0000
0
LINE
8
ROOM
10
2342.0000
11
4685.0000
20
16360.0000
21
16360.0000
30
0.0000
31
0.0000
0
LINE
8
ROOM
10
4685.0000
11
4685.0000
20
16360.0000
21
20000.0000
30
0.0000
31
0.0000
0
LINE
8
ROOM
10
4685.0000
11
2342.0000
20
20000.0000
21
20000.0000
30
0.0000
31
0.0000
0
LINE
8
ROOM
10
2342.0000
11
2342.0000
20
20000.0000
21
16360.0000
30
0.0000
31
0.0000
0
TEXT
1
個室9号
8
TEXT
10
3413.5000
11
3413.5000
20
18180.0000
21
18270.0000
30
0.0000
31
0.0000
40
180.0000
72
1.0000
0
LINE
8
ROOM
10
4685.0000
11
7027.0000
20
16360.0000
21
16360.0000
30
0.0000
31
0.0000
0
LINE
8
ROOM
10
7027.0000
11
7027.0000
20
16360.0000
21
20000.0000
30
0.0000
31
0.0000
0
LINE
8
ROOM
10
7027.0000
11
4685.0000
20
20000.0000
21
20000.0000
30
0.0000
31
0.0000
0
LINE
8
ROOM
10
4685.0000
11
4685.0000
20
20000.0000
21
16360.0000
30
0.0000
31
0.0000
0
TEXT
1
個室10号
8
TEXT
10
5756.0000
11
5756.0000
20
18180.0000
21
18270.0000
30
0.0000
31
0.0000
40
180.0000
72
1.0000
0
LINE
8
ROOM
10
7027.0000
11
9369.0000
20
16360.0000
21
16360.0000
30
0.0000
31
0.0000
0
LINE
8
ROOM
10
9369.0000
11
9369.0000
20
16360.0000
21
20000.0000
30
0.0000
31
0.0000
0
LINE
8
ROOM
10
9369.0000
11
7027.0000
20
20000.0000
21
20000.0000
30
0.0000
31
0.0000
0
LINE
8
ROOM
10
7027.0000
11
7027.0000
20
20000.0000
21
16360.0000
30
0.0000
31
0.0000
0
TEXT
1
個室11号
8
TEXT
10
8098.0000
11
8098.0000
20
18180.0000
21
18270.0000
30
0.0000
31
0.0000
40
180.0000
72
1.0000
0
LINE
8
ROOM
10
9369.0000
11
11712.0000
20
16360.0000
21
16360.0000
30
0.0000
31
0.0000
0
LINE
8
ROOM
10
11712.0000
11
11712.0000
20
16360.0000
21
20000.0000
30
0.0000
31
0.0000
0
LINE
8
ROOM
10
11712.0000
11
9369.0000
20
20000.0000
21
20000.0000
30
0.0000
31
0.0000
0
LINE
8
ROOM
10
9369.0000
11
9369.0000
20
20000.0000
21
16360.0000
30
0.0000
31
0.0000
0
TEXT
1
個室12号
8
TEXT
10
10440.5000
11
10440.5000
20
18180.0000
21
18270.0000
30
0.0000
31
0.0000
40
180.0000
72
1.0000
0
LINE
8
ROOM
10
11712.0000
11
14054.0000
20
16360.0000
21
16360.0000
30
0.0000
31
0.0000
0
LINE
8
ROOM
10
14054.0000
11
14054.0000
20
16360.0000
21
20000.0000
30
0.0000
31
0.0000
0
LINE
8
ROOM
10
14054.0000
11
11712.0000
20
20000.0000
21
20000.0000
30
0.0000
31
0.0000
0
LINE
8
ROOM
10
11712.0000
11
11712.0000
20
20000.0000
21
16360.0000
30
0.0000
31
0.0000
0
TEXT
1
個室13号
8
TEXT
10
12783.0000
11
12783.0000
20
18180.0000
21
18270.0000
30
0.0000
31
0.0000
40
180.0000
72
1.0000
0
LINE
8
ROOM
10
14054.0000
11
16396.0000
20
16360.0000
21
16360.0000
30
0.0000
31
0.0000
0
LINE
8
ROOM
10
16396.0000
11
16396.0000
20
16360.0000
21
20000.0000
30
0.0000
31
0.0000
0
LINE
8
ROOM
10
16396.0000
11
14054.0000
20
20000.0000
21
20000.0000
30
0.0000
31
0.0000
0
LINE
8
ROOM
10
14054.0000
11
14054.0000
20
20000.0000
21
16360.0000
30
0.0000
31
0.0000
0
TEXT
1
個室14号
8
TEXT
10
15125.0000
11
15125.0000
20
18180.0000
21
18270.0000
30
0.0000
31
0.0000
40
180.0000
72
1.0000
0
LINE
8
STRUCT
10
0.0000
11
21494.0000
20
21700.0000
21
21700.0000
30
0.0000
31
0.0000
0
TEXT
1
SOLUNA BUILD — MYTH
8
TEXT
10
0.0000
11
0.0000
20
22400.0000
21
22625.0000
30
0.0000
31
0.0000
40
450.0000
72
1.0000
0
TEXT
1
W 16,380 × D 9,100 mm（2階建て）
8
TEXT
10
0.0000
11
0.0000
20
22080.0000
21
22230.0000
30
0.0000
31
0.0000
40
300.0000
72
1.0000
0
TEXT
1
床面積:300m²　工期:52週　材料費:¥2543万
8
TEXT
10
0.0000
11
0.0000
20
21850.0000
21
21970.0000
30
0.0000
31
0.0000
40
240.0000
72
1.0000
0
TEXT
1
910mmモジュール / SIPs断熱 / 単位:mm / 縮尺1:50
8
TEXT
10
0.0000
11
0.0000
20
21650.0000
21
21760.0000
30
0.0000
31
0.0000
40
220.0000
72
1.0000
0
TEXT
1
↑
8
TEXT
10
21694.0000
11
21694.0000
20
4750.0000
21
5000.0000
30
0.0000
31
0.0000
40
500.0000
72
1.0000
0
TEXT
1
N
8
TEXT
10
21694.0000
11
21694.0000
20
4450.0000
21
4600.0000
30
0.0000
31
0.0000
40
300.0000
72
1.0000
0
ENDSEC
0
EOF
