<?xml version="1.0" encoding="UTF-8"?>
<svg xmlns="http://www.w3.org/2000/svg" viewBox="0 0 800 600" width="800" height="600" font-family="'Helvetica Neue',Arial,sans-serif">
  <rect width="800" height="600" fill="white"/>

  <!-- Title -->
  <text x="400" y="36" text-anchor="middle" font-size="16" font-weight="bold">【図1】バイオグリッドパネル 断面構造図</text>
  <text x="400" y="56" text-anchor="middle" font-size="11" fill="#555">Fig.1  BioGrid Panel — Cross-Section</text>

  <!-- Overall dimension lines -->
  <line x1="180" y1="88" x2="620" y2="88" stroke="#999" stroke-width="1" stroke-dasharray="4,3"/>
  <line x1="180" y1="88" x2="180" y2="82" stroke="#999" stroke-width="1"/>
  <line x1="620" y1="88" x2="620" y2="82" stroke="#999" stroke-width="1"/>
  <text x="400" y="80" text-anchor="middle" font-size="10" fill="#555">300 mm</text>

  <line x1="628" y1="100" x2="628" y2="510" stroke="#999" stroke-width="1" stroke-dasharray="4,3"/>
  <line x1="628" y1="100" x2="634" y2="100" stroke="#999" stroke-width="1"/>
  <line x1="628" y1="510" x2="634" y2="510" stroke="#999" stroke-width="1"/>
  <text x="648" y="310" text-anchor="start" font-size="10" fill="#555" transform="rotate(90,648,310)">40 mm</text>

  <!-- Layer 1: Bamboo cover -->
  <rect x="180" y="100" width="440" height="48" fill="#d4b896" stroke="#8b6914" stroke-width="1.5"/>
  <text x="400" y="120" text-anchor="middle" font-size="12" font-weight="bold">竹合板カバー（防水加工）</text>
  <text x="400" y="138" text-anchor="middle" font-size="10" fill="#555">Bamboo plywood cover (waterproof)　5 mm</text>

  <!-- Layer 2: PCB -->
  <rect x="180" y="148" width="440" height="64" fill="#1a6b3a" stroke="#0d3d20" stroke-width="1.5"/>
  <!-- PCB components -->
  <rect x="210" y="160" width="50" height="28" rx="3" fill="#2d9e5a" stroke="#fff" stroke-width="0.8"/>
  <text x="235" y="174" text-anchor="middle" font-size="8" fill="white" font-weight="bold">BQ25504</text>
  <text x="235" y="184" text-anchor="middle" font-size="7" fill="#cff0da">Energy IC</text>

  <rect x="278" y="160" width="52" height="28" rx="3" fill="#2d9e5a" stroke="#fff" stroke-width="0.8"/>
  <text x="304" y="174" text-anchor="middle" font-size="8" fill="white" font-weight="bold">10F Cap</text>
  <text x="304" y="184" text-anchor="middle" font-size="7" fill="#cff0da">5.5V Super</text>

  <rect x="348" y="160" width="56" height="28" rx="3" fill="#2d9e5a" stroke="#fff" stroke-width="0.8"/>
  <text x="376" y="174" text-anchor="middle" font-size="8" fill="white" font-weight="bold">nRF52840</text>
  <text x="376" y="184" text-anchor="middle" font-size="7" fill="#cff0da">BLE + NFC</text>

  <!-- NFC antenna -->
  <ellipse cx="480" cy="174" rx="26" ry="14" fill="none" stroke="#7fdfaa" stroke-width="1.5" stroke-dasharray="3,2"/>
  <text x="480" y="178" text-anchor="middle" font-size="7" fill="#7fdfaa">NFC</text>

  <text x="400" y="203" text-anchor="middle" font-size="9" fill="#cff0da">PCB 回路基板　6 mm</text>

  <!-- Layer 3: Anode electrode -->
  <rect x="180" y="212" width="440" height="30" fill="#3a3a3a" stroke="#111" stroke-width="1.5"/>
  <!-- carbon fiber texture -->
  <line x1="200" y1="212" x2="200" y2="242" stroke="#555" stroke-width="0.5"/>
  <line x1="220" y1="212" x2="220" y2="242" stroke="#555" stroke-width="0.5"/>
  <line x1="240" y1="212" x2="240" y2="242" stroke="#555" stroke-width="0.5"/>
  <line x1="260" y1="212" x2="260" y2="242" stroke="#555" stroke-width="0.5"/>
  <line x1="280" y1="212" x2="280" y2="242" stroke="#555" stroke-width="0.5"/>
  <line x1="300" y1="212" x2="300" y2="242" stroke="#555" stroke-width="0.5"/>
  <line x1="320" y1="212" x2="320" y2="242" stroke="#555" stroke-width="0.5"/>
  <line x1="340" y1="212" x2="340" y2="242" stroke="#555" stroke-width="0.5"/>
  <line x1="360" y1="212" x2="360" y2="242" stroke="#555" stroke-width="0.5"/>
  <line x1="380" y1="212" x2="380" y2="242" stroke="#555" stroke-width="0.5"/>
  <line x1="400" y1="212" x2="400" y2="242" stroke="#555" stroke-width="0.5"/>
  <line x1="420" y1="212" x2="420" y2="242" stroke="#555" stroke-width="0.5"/>
  <line x1="440" y1="212" x2="440" y2="242" stroke="#555" stroke-width="0.5"/>
  <line x1="460" y1="212" x2="460" y2="242" stroke="#555" stroke-width="0.5"/>
  <line x1="480" y1="212" x2="480" y2="242" stroke="#555" stroke-width="0.5"/>
  <line x1="500" y1="212" x2="500" y2="242" stroke="#555" stroke-width="0.5"/>
  <line x1="520" y1="212" x2="520" y2="242" stroke="#555" stroke-width="0.5"/>
  <line x1="540" y1="212" x2="540" y2="242" stroke="#555" stroke-width="0.5"/>
  <line x1="560" y1="212" x2="560" y2="242" stroke="#555" stroke-width="0.5"/>
  <line x1="580" y1="212" x2="580" y2="242" stroke="#555" stroke-width="0.5"/>
  <line x1="600" y1="212" x2="600" y2="242" stroke="#555" stroke-width="0.5"/>
  <text x="400" y="231" text-anchor="middle" font-size="11" fill="white" font-weight="bold">炭素繊維フェルト電極（＋ アノード）　2 mm</text>

  <!-- Layer 4: PEM -->
  <rect x="180" y="242" width="440" height="18" fill="#c8e8ff" stroke="#4a90d9" stroke-width="1.5"/>
  <text x="400" y="255" text-anchor="middle" font-size="10" font-weight="bold" fill="#1a4a80">Nafion N117 プロトン交換膜（PEM）　0.5 mm</text>

  <!-- Layer 5: Cathode electrode -->
  <rect x="180" y="260" width="440" height="30" fill="#3a3a3a" stroke="#111" stroke-width="1.5"/>
  <line x1="200" y1="260" x2="200" y2="290" stroke="#555" stroke-width="0.5"/>
  <line x1="220" y1="260" x2="220" y2="290" stroke="#555" stroke-width="0.5"/>
  <line x1="240" y1="260" x2="240" y2="290" stroke="#555" stroke-width="0.5"/>
  <line x1="260" y1="260" x2="260" y2="290" stroke="#555" stroke-width="0.5"/>
  <line x1="280" y1="260" x2="280" y2="290" stroke="#555" stroke-width="0.5"/>
  <line x1="300" y1="260" x2="300" y2="290" stroke="#555" stroke-width="0.5"/>
  <line x1="320" y1="260" x2="320" y2="290" stroke="#555" stroke-width="0.5"/>
  <line x1="340" y1="260" x2="340" y2="290" stroke="#555" stroke-width="0.5"/>
  <line x1="360" y1="260" x2="360" y2="290" stroke="#555" stroke-width="0.5"/>
  <line x1="380" y1="260" x2="380" y2="290" stroke="#555" stroke-width="0.5"/>
  <line x1="400" y1="260" x2="400" y2="290" stroke="#555" stroke-width="0.5"/>
  <line x1="420" y1="260" x2="420" y2="290" stroke="#555" stroke-width="0.5"/>
  <line x1="440" y1="260" x2="440" y2="290" stroke="#555" stroke-width="0.5"/>
  <line x1="460" y1="260" x2="460" y2="290" stroke="#555" stroke-width="0.5"/>
  <line x1="480" y1="260" x2="480" y2="290" stroke="#555" stroke-width="0.5"/>
  <line x1="500" y1="260" x2="500" y2="290" stroke="#555" stroke-width="0.5"/>
  <line x1="520" y1="260" x2="520" y2="290" stroke="#555" stroke-width="0.5"/>
  <line x1="540" y1="260" x2="540" y2="290" stroke="#555" stroke-width="0.5"/>
  <line x1="560" y1="260" x2="560" y2="290" stroke="#555" stroke-width="0.5"/>
  <line x1="580" y1="260" x2="580" y2="290" stroke="#555" stroke-width="0.5"/>
  <line x1="600" y1="260" x2="600" y2="290" stroke="#555" stroke-width="0.5"/>
  <text x="400" y="279" text-anchor="middle" font-size="11" fill="white" font-weight="bold">炭素繊維フェルト電極（－ カソード）　2 mm</text>

  <!-- Layer 6: Microbial bed -->
  <rect x="180" y="290" width="440" height="130" fill="#8B6914" stroke="#5c4409" stroke-width="1.5"/>
  <!-- soil texture dots -->
  <circle cx="210" cy="315" r="3" fill="#6b4f10" opacity="0.7"/>
  <circle cx="240" cy="325" r="4" fill="#6b4f10" opacity="0.6"/>
  <circle cx="270" cy="310" r="3" fill="#6b4f10" opacity="0.8"/>
  <circle cx="300" cy="330" r="5" fill="#6b4f10" opacity="0.5"/>
  <circle cx="330" cy="318" r="3" fill="#6b4f10" opacity="0.7"/>
  <circle cx="360" cy="308" r="4" fill="#6b4f10" opacity="0.6"/>
  <circle cx="390" cy="325" r="3" fill="#6b4f10" opacity="0.8"/>
  <circle cx="420" cy="315" r="5" fill="#6b4f10" opacity="0.5"/>
  <circle cx="450" cy="330" r="3" fill="#6b4f10" opacity="0.7"/>
  <circle cx="480" cy="310" r="4" fill="#6b4f10" opacity="0.6"/>
  <circle cx="510" cy="320" r="3" fill="#6b4f10" opacity="0.8"/>
  <circle cx="540" cy="328" r="5" fill="#6b4f10" opacity="0.5"/>
  <circle cx="570" cy="312" r="3" fill="#6b4f10" opacity="0.7"/>
  <circle cx="600" cy="322" r="4" fill="#6b4f10" opacity="0.6"/>
  <!-- bacteria indicators -->
  <ellipse cx="225" cy="350" rx="6" ry="3" fill="#c8f080" opacity="0.8"/>
  <ellipse cx="310" cy="355" rx="7" ry="3" fill="#c8f080" opacity="0.8"/>
  <ellipse cx="400" cy="345" rx="6" ry="3" fill="#c8f080" opacity="0.8"/>
  <ellipse cx="490" cy="358" rx="7" ry="3" fill="#c8f080" opacity="0.8"/>
  <ellipse cx="575" cy="348" rx="6" ry="3" fill="#c8f080" opacity="0.8"/>
  <text x="400" y="375" text-anchor="middle" font-size="12" fill="white" font-weight="bold">菌 床</text>
  <text x="400" y="393" text-anchor="middle" font-size="10" fill="#f0d88a">ライスストロー（炭素源） + Geobacter 系混合菌叢</text>
  <text x="400" y="410" text-anchor="middle" font-size="10" fill="#f0d88a">設置地点の表土 100g を混合（初期接種）</text>
  <text x="400" y="427" text-anchor="middle" font-size="9" fill="#d4b87a">Microbial bed — Rice straw substrate + electroactive bacteria</text>

  <!-- Bottom border -->
  <rect x="180" y="420" width="440" height="8" fill="#5c4409" stroke="#3d2d05" stroke-width="1"/>

  <!-- Electrochemical reactions -->
  <rect x="52" y="212" width="120" height="36" rx="4" fill="#fff8e8" stroke="#e8a020" stroke-width="1"/>
  <text x="112" y="228" text-anchor="middle" font-size="9" fill="#8b5a00">アノード（酸化）</text>
  <text x="112" y="242" text-anchor="middle" font-size="9" fill="#8b5a00">有機物 → CO₂ + H⁺ + e⁻</text>
  <line x1="172" y1="227" x2="182" y2="227" stroke="#e8a020" stroke-width="1.2" marker-end="url(#arr)"/>

  <rect x="52" y="260" width="120" height="36" rx="4" fill="#e8f4ff" stroke="#4a90d9" stroke-width="1"/>
  <text x="112" y="276" text-anchor="middle" font-size="9" fill="#1a4a80">カソード（還元）</text>
  <text x="112" y="290" text-anchor="middle" font-size="9" fill="#1a4a80">O₂ + 4H⁺ + 4e⁻ → 2H₂O</text>
  <line x1="172" y1="275" x2="182" y2="275" stroke="#4a90d9" stroke-width="1.2" marker-end="url(#arr2)"/>

  <!-- electron flow arrow -->
  <path d="M 620 227 Q 650 227 650 275 Q 650 310 620 310" fill="none" stroke="#f0a000" stroke-width="2" stroke-dasharray="5,3"/>
  <text x="660" y="270" font-size="9" fill="#c07800" transform="rotate(90,660,270)">電子（e⁻）→ 電力</text>

  <!-- Output annotation -->
  <rect x="190" y="465" width="420" height="52" rx="6" fill="#f0f8f0" stroke="#2a7a2a" stroke-width="1.2"/>
  <text x="400" y="483" text-anchor="middle" font-size="11" font-weight="bold" fill="#1a5a1a">出力仕様</text>
  <text x="400" y="500" text-anchor="middle" font-size="10" fill="#2a6a2a">開回路電圧: 0.3〜0.8 V　｜　出力電力: 1〜40 mW（季節・土壌依存）</text>
  <text x="400" y="516" text-anchor="middle" font-size="10" fill="#2a6a2a">BEF フィンガープリント周期: 24h ｜ 耐用年数: 10 年以上</text>

  <!-- Arrow markers -->
  <defs>
    <marker id="arr" markerWidth="8" markerHeight="8" refX="6" refY="3" orient="auto">
      <path d="M0,0 L0,6 L8,3 z" fill="#e8a020"/>
    </marker>
    <marker id="arr2" markerWidth="8" markerHeight="8" refX="6" refY="3" orient="auto">
      <path d="M0,0 L0,6 L8,3 z" fill="#4a90d9"/>
    </marker>
  </defs>

  <!-- Figure number -->
  <text x="400" y="578" text-anchor="middle" font-size="10" fill="#888">Fig. 1 — 特許出願用図面　©2026 濱田優貴</text>
</svg>
