  0
SECTION
  2
HEADER
  9
$ACADVER
  1
AC1009
  9
$DWGCODEPAGE
  3
ANSI_1252
  9
$INSBASE
 10
0.0
 20
0.0
 30
0.0
  9
$EXTMIN
 10
-30.0
 20
-45.0
 30
0.0
  9
$EXTMAX
 10
200.0
 20
25.0
 30
0.0
  9
$LIMMIN
 10
-30.0
 20
-45.0
  9
$LIMMAX
 10
200.0
 20
25.0
  9
$LUNITS
 70
4
  9
$LUPREC
 70
2
  9
$ANGBASE
 50
0.0
  9
$ANGDIR
 70
0
  9
$MEASUREMENT
 70
1
  0
ENDSEC
  0
SECTION
  2
TABLES
  0
TABLE
  2
LTYPE
 70
1
  0
LTYPE
  2
CONTINUOUS
 70
0
  3
Solid line
 72
65
 73
0
 40
0.0
  0
ENDTAB
  0
TABLE
  2
LAYER
 70
4
  0
LAYER
  2
0
 70
0
 62
7
  6
CONTINUOUS
  0
LAYER
  2
PROFILE
 70
0
 62
7
  6
CONTINUOUS
  0
LAYER
  2
DIMS
 70
0
 62
3
  6
CONTINUOUS
  0
LAYER
  2
NOTES
 70
0
 62
1
  6
CONTINUOUS
  0
ENDTAB
  0
TABLE
  2
STYLE
 70
1
  0
STYLE
  2
STANDARD
 70
0
 40
0.0
 41
1.0
 42
2.0
 50
0.0
 71
0
  3
txt
  4

  0
ENDTAB
  0
ENDSEC
  0
SECTION
  2
ENTITIES
  0
POLYLINE
  8
PROFILE
 62
7
 66
     1
 10
0.0
 20
0.0
 30
0.0
 70
1
  0
VERTEX
  8
PROFILE
 10
0.0
 20
0.0
 30
0.0
 70
0
  0
VERTEX
  8
PROFILE
 10
0.0
 20
-26.0
 30
0.0
 70
0
  0
VERTEX
  8
PROFILE
 10
67.0
 20
-26.0
 30
0.0
 70
0
  0
VERTEX
  8
PROFILE
 10
67.0
 20
-2.0
 30
0.0
 70
0
  0
VERTEX
  8
PROFILE
 10
69.0
 20
0.0
 30
0.0
 70
0
  0
VERTEX
  8
PROFILE
 10
96.0
 20
0.0
 30
0.0
 70
0
  0
VERTEX
  8
PROFILE
 10
98.0
 20
-2.0
 30
0.0
 70
0
  0
VERTEX
  8
PROFILE
 10
98.0
 20
-26.0
 30
0.0
 70
0
  0
VERTEX
  8
PROFILE
 10
165.0
 20
-26.0
 30
0.0
 70
0
  0
VERTEX
  8
PROFILE
 10
165.0
 20
0.0
 30
0.0
 70
0
  0
SEQEND
  8
PROFILE
  0
LINE
  8
DIMS
 62
3
 10
0.0
 20
5.0
 30
0.0
 11
165.0
 21
5.0
 31
0.0
  0
LINE
  8
DIMS
 62
3
 10
0.0
 20
0.0
 30
0.0
 11
0.0
 21
7.0
 31
0.0
  0
LINE
  8
DIMS
 62
3
 10
165.0
 20
0.0
 30
0.0
 11
165.0
 21
7.0
 31
0.0
  0
TEXT
  8
DIMS
 62
3
 10
82.5
 20
8.0
 30
0.0
 40
2.5
  1
165
 50
0.0
 72
1
  0
LINE
  8
DIMS
 62
3
 10
69.0
 20
3.0
 30
0.0
 11
96.0
 21
3.0
 31
0.0
  0
LINE
  8
DIMS
 62
3
 10
69.0
 20
0.0
 30
0.0
 11
69.0
 21
4.5
 31
0.0
  0
LINE
  8
DIMS
 62
3
 10
96.0
 20
0.0
 30
0.0
 11
96.0
 21
4.5
 31
0.0
  0
TEXT
  8
DIMS
 62
3
 10
82.5
 20
4.5
 30
0.0
 40
2.0
  1
27 GROOVE OPENING
 50
0.0
 72
1
  0
LINE
  8
DIMS
 62
3
 10
67.0
 20
2.5
 30
0.0
 11
98.0
 21
2.5
 31
0.0
  0
LINE
  8
DIMS
 62
3
 10
67.0
 20
-26.0
 30
0.0
 11
67.0
 21
4.0
 31
0.0
  0
LINE
  8
DIMS
 62
3
 10
98.0
 20
-26.0
 30
0.0
 11
98.0
 21
4.0
 31
0.0
  0
TEXT
  8
DIMS
 62
3
 10
82.5
 20
0.5
 30
0.0
 40
2.0
  1
31 GROOVE
 50
0.0
 72
1
  0
LINE
  8
DIMS
 62
3
 10
-5.0
 20
0.0
 30
0.0
 11
-5.0
 21
-26.0
 31
0.0
  0
LINE
  8
DIMS
 62
3
 10
0.0
 20
0.0
 30
0.0
 11
-7.0
 21
0.0
 31
0.0
  0
LINE
  8
DIMS
 62
3
 10
0.0
 20
-26.0
 30
0.0
 11
-7.0
 21
-26.0
 31
0.0
  0
TEXT
  8
DIMS
 62
3
 10
-8.0
 20
-13.0
 30
0.0
 40
2.0
  1
26
 50
90.0
 72
1
  0
TEXT
  8
NOTES
 62
1
 10
82.5
 20
17.0
 30
0.0
 40
3.5
  1
SBX-WALL-165 FEMALE SNAP GROOVE PROFILE
 50
0.0
 72
1
  0
TEXT
  8
NOTES
 62
1
 10
82.5
 20
13.0
 30
0.0
 40
2.2
  1
DOC: SBX-SPEC-001-F  REV: A  DATE: 2026-05-06
 50
0.0
 72
1
  0
TEXT
  8
NOTES
 62
1
 10
82.5
 20
-31.0
 30
0.0
 40
2.0
  1
UNIT: mm  TOLERANCE: +-0.3 UNLESS NOTED  CHAMFER: 2x45deg BOTH GROOVE ENTRY EDGES
 50
0.0
 72
1
  0
TEXT
  8
NOTES
 62
1
 10
82.5
 20
-35.0
 30
0.0
 40
2.0
  1
GROOVE ACCEPTS MALE TONGUE 30x25mm + 1mm CLEARANCE EACH SIDE + EPDM CORD COMPRESSED
 50
0.0
 72
1
  0
TEXT
  8
NOTES
 62
1
 10
69.0
 20
-1.5
 30
0.0
 40
1.6
  1
C2x45
 50
45.0
 72
0
  0
TEXT
  8
NOTES
 62
1
 10
96.0
 20
-1.5
 30
0.0
 40
1.6
  1
C2x45
 50
315.0
 72
0
  0
ENDSEC
  0
EOF
