  0
SECTION
  2
HEADER
  9
$ACADVER
  1
AC1009
  9
$DWGCODEPAGE
  3
ANSI_1252
  9
$INSBASE
 10
0.0
 20
0.0
 30
0.0
  9
$EXTMIN
 10
-30.0
 20
-45.0
 30
0.0
  9
$EXTMAX
 10
200.0
 20
25.0
 30
0.0
  9
$LIMMIN
 10
-30.0
 20
-45.0
  9
$LIMMAX
 10
200.0
 20
25.0
  9
$LUNITS
 70
4
  9
$LUPREC
 70
2
  9
$ANGBASE
 50
0.0
  9
$ANGDIR
 70
0
  9
$MEASUREMENT
 70
1
  0
ENDSEC
  0
SECTION
  2
TABLES
  0
TABLE
  2
LTYPE
 70
2
  0
LTYPE
  2
CONTINUOUS
 70
0
  3
Solid line
 72
65
 73
0
 40
0.0
  0
LTYPE
  2
CENTER2
 70
0
  3
Center line _ . _ . _
 72
65
 73
4
 40
1.6
 49
1.0
 49
-0.2
 49
0.2
 49
-0.2
  0
ENDTAB
  0
TABLE
  2
LAYER
 70
5
  0
LAYER
  2
0
 70
0
 62
7
  6
CONTINUOUS
  0
LAYER
  2
PROFILE
 70
0
 62
7
  6
CONTINUOUS
  0
LAYER
  2
DIMS
 70
0
 62
3
  6
CONTINUOUS
  0
LAYER
  2
HATCH
 70
0
 62
8
  6
CONTINUOUS
  0
LAYER
  2
NOTES
 70
0
 62
1
  6
CONTINUOUS
  0
ENDTAB
  0
TABLE
  2
STYLE
 70
1
  0
STYLE
  2
STANDARD
 70
0
 40
0.0
 41
1.0
 42
2.0
 50
0.0
 71
0
  3
txt
  4

  0
ENDTAB
  0
ENDSEC
  0
SECTION
  2
ENTITIES
  0
POLYLINE
  8
PROFILE
 62
7
 66
     1
 10
0.0
 20
0.0
 30
0.0
 70
1
  0
VERTEX
  8
PROFILE
 10
0.0
 20
0.0
 30
0.0
 70
0
  0
VERTEX
  8
PROFILE
 10
0.0
 20
-25.0
 30
0.0
 70
0
  0
VERTEX
  8
PROFILE
 10
67.5
 20
-25.0
 30
0.0
 70
0
  0
VERTEX
  8
PROFILE
 10
67.5
 20
0.0
 30
0.0
 70
0
  0
VERTEX
  8
PROFILE
 10
80.5
 20
0.0
 30
0.0
 70
0
  0
VERTEX
  8
PROFILE
 10
80.5
 20
-4.0
 30
0.0
 70
0
  0
VERTEX
  8
PROFILE
 10
84.5
 20
-4.0
 30
0.0
 70
0
  0
VERTEX
  8
PROFILE
 10
84.5
 20
0.0
 30
0.0
 70
0
  0
VERTEX
  8
PROFILE
 10
97.5
 20
0.0
 30
0.0
 70
0
  0
VERTEX
  8
PROFILE
 10
97.5
 20
-25.0
 30
0.0
 70
0
  0
VERTEX
  8
PROFILE
 10
165.0
 20
-25.0
 30
0.0
 70
0
  0
VERTEX
  8
PROFILE
 10
165.0
 20
0.0
 30
0.0
 70
0
  0
SEQEND
  8
PROFILE
  0
LINE
  8
DIMS
 62
3
 10
0.0
 20
5.0
 30
0.0
 11
165.0
 21
5.0
 31
0.0
  0
LINE
  8
DIMS
 62
3
 10
0.0
 20
0.0
 30
0.0
 11
0.0
 21
7.0
 31
0.0
  0
LINE
  8
DIMS
 62
3
 10
165.0
 20
0.0
 30
0.0
 11
165.0
 21
7.0
 31
0.0
  0
TEXT
  8
DIMS
 62
3
 10
82.5
 20
8.0
 30
0.0
 40
2.5
  1
165
 50
0.0
 72
1
  0
LINE
  8
DIMS
 62
3
 10
67.5
 20
3.0
 30
0.0
 11
97.5
 21
3.0
 31
0.0
  0
LINE
  8
DIMS
 62
3
 10
67.5
 20
0.0
 30
0.0
 11
67.5
 21
4.5
 31
0.0
  0
LINE
  8
DIMS
 62
3
 10
97.5
 20
0.0
 30
0.0
 11
97.5
 21
4.5
 31
0.0
  0
TEXT
  8
DIMS
 62
3
 10
82.5
 20
4.5
 30
0.0
 40
2.0
  1
30 TONGUE
 50
0.0
 72
1
  0
LINE
  8
DIMS
 62
3
 10
-5.0
 20
0.0
 30
0.0
 11
-5.0
 21
-25.0
 31
0.0
  0
LINE
  8
DIMS
 62
3
 10
0.0
 20
0.0
 30
0.0
 11
-7.0
 21
0.0
 31
0.0
  0
LINE
  8
DIMS
 62
3
 10
0.0
 20
-25.0
 30
0.0
 11
-7.0
 21
-25.0
 31
0.0
  0
TEXT
  8
DIMS
 62
3
 10
-8.0
 20
-12.5
 30
0.0
 40
2.0
  1
25
 50
90.0
 72
1
  0
LINE
  8
DIMS
 62
3
 10
80.5
 20
-7.0
 30
0.0
 11
84.5
 21
-7.0
 31
0.0
  0
LINE
  8
DIMS
 62
3
 10
80.5
 20
-4.0
 30
0.0
 11
80.5
 21
-8.5
 31
0.0
  0
LINE
  8
DIMS
 62
3
 10
84.5
 20
-4.0
 30
0.0
 11
84.5
 21
-8.5
 31
0.0
  0
TEXT
  8
DIMS
 62
3
 10
82.5
 20
-10.0
 30
0.0
 40
1.8
  1
EPDM 4x4
 50
0.0
 72
1
  0
TEXT
  8
NOTES
 62
1
 10
82.5
 20
17.0
 30
0.0
 40
3.5
  1
SBX-WALL-165 MALE SNAP EDGE PROFILE
 50
0.0
 72
1
  0
TEXT
  8
NOTES
 62
1
 10
82.5
 20
13.0
 30
0.0
 40
2.2
  1
DOC: SBX-SPEC-001-M  REV: A  DATE: 2026-05-06
 50
0.0
 72
1
  0
TEXT
  8
NOTES
 62
1
 10
82.5
 20
-31.0
 30
0.0
 40
2.0
  1
UNIT: mm  TOLERANCE: +-0.3 UNLESS NOTED  MATERIAL: OSB JAS2 11mm + PUR 40kg/m3 143mm
 50
0.0
 72
1
  0
TEXT
  8
NOTES
 62
1
 10
82.5
 20
-35.0
 30
0.0
 40
2.0
  1
EPDM GROOVE: ACCEPTS 6mm ROUND CORD GASKET, COMPRESSED 33% IN ASSEMBLY
 50
0.0
 72
1
  0
LINE
  8
DIMS
 62
3
 10
82.5
 20
1.5
 30
0.0
 11
82.5
 21
-28.0
 31
0.0
  0
ENDSEC
  0
EOF
